<svg width="51" height="48" viewBox="0 0 51 48" fill="none" xmlns="http://www.w3.org/2000/svg">
<g clip-path="url(#clip0_310_10932)">
<path fill-rule="evenodd" clip-rule="evenodd" d="M25.5001 7.26016L23.2146 5.04916C19.6128 1.56616 12.8776 2.71816 10.4328 7.20917C9.31714 9.26416 8.99521 12.3302 11.185 16.3952C13.2601 20.2592 17.5951 24.9602 25.5001 30.1262C33.4019 24.9572 37.7369 20.2562 39.8151 16.3952C42.005 12.3302 41.6862 9.26416 40.5674 7.21216C38.1226 2.71816 31.3874 1.56616 27.7855 5.04916L25.5001 7.26016ZM23.9382 32.7602C-10.423 10.4402 14.3757 -6.70484 25.0825 2.57116C25.227 2.69516 25.3673 2.82416 25.5033 2.95816C25.6414 2.82416 25.7816 2.69516 25.924 2.57116C36.634 -6.70484 61.4232 10.4432 27.062 32.7602L27.811 34.1642C27.8579 34.2524 27.8859 34.3485 27.8933 34.4469C27.9007 34.5453 27.8875 34.6442 27.8543 34.7378C27.8212 34.8314 27.7688 34.9179 27.7001 34.9924C27.6314 35.067 27.5478 35.128 27.454 35.1722C27.3603 35.2163 27.2582 35.2426 27.1536 35.2496C27.049 35.2566 26.944 35.2441 26.8446 35.2129C26.7451 35.1817 26.6532 35.1324 26.574 35.0678C26.4948 35.0031 26.4299 34.9244 26.383 34.8362L26.3575 34.7852C26.383 35.1152 26.4213 35.3912 26.4755 35.6552C26.6476 36.4652 26.9886 37.1192 27.811 38.6642C28.729 40.3982 28.5601 42.1142 28.0533 43.5512C27.5528 44.9582 26.7081 46.1522 26.179 46.8962L26.1663 46.9172C26.1081 46.9991 26.0333 47.0695 25.9462 47.1242C25.8592 47.179 25.7615 47.217 25.6588 47.2363C25.5561 47.2555 25.4504 47.2555 25.3477 47.2362C25.2449 47.217 25.1473 47.1789 25.0602 47.1242C24.9731 47.0694 24.8984 46.999 24.8402 46.9171C24.782 46.8351 24.7416 46.7432 24.7212 46.6465C24.7007 46.5499 24.7007 46.4504 24.7212 46.3537C24.7416 46.257 24.7821 46.1651 24.8403 46.0832C25.3758 45.3272 26.1153 44.2832 26.5392 43.0742C26.9631 41.8862 27.0588 40.6022 26.383 39.3362L26.3416 39.2522C25.5766 37.8122 25.1303 36.9782 24.9136 35.9462C24.8223 35.5007 24.7669 35.0495 24.7478 34.5962L24.6203 34.8362C24.5739 34.925 24.5093 35.0043 24.4302 35.0695C24.3511 35.1348 24.2591 35.1846 24.1594 35.2162C24.0597 35.2477 23.9544 35.2604 23.8495 35.2535C23.7446 35.2466 23.6422 35.2202 23.5481 35.1759C23.4541 35.1315 23.3704 35.0701 23.3017 34.9952C23.233 34.9202 23.1808 34.8332 23.148 34.7391C23.1152 34.6451 23.1025 34.5459 23.1107 34.4472C23.1188 34.3485 23.1477 34.2523 23.1955 34.1642L23.9446 32.7602H23.9382ZM19.1665 6.18016C17.0978 5.64016 14.4395 6.42916 13.2696 8.57416C12.8521 9.34816 12.4887 10.6412 13.0146 12.5792C13.2155 13.3112 14.3343 13.1732 14.567 12.4502C15.2363 10.3592 16.5655 8.10916 18.8988 7.37416C19.5905 7.15516 19.8678 6.36316 19.1665 6.18016Z" fill="black"/>
</g>
<defs>
<clipPath id="clip0_310_10932">
<rect width="51" height="48" fill="white"/>
</clipPath>
</defs>
</svg>
