<svg width="19" height="19" viewBox="0 0 19 12" fill="none" xmlns="http://www.w3.org/2000/svg">
<g clip-path="url(#clip0_283_5755)">
<path d="M1.0625 3.50479C2.00281 3.11167 3.35113 2.68773 4.66225 2.55598C6.07538 2.4136 7.27388 2.62292 7.96875 3.35498V13.7101C6.97531 13.147 5.71625 13.0694 4.55494 13.1863C3.30119 13.3138 2.03681 13.6761 1.0625 14.048V3.50479ZM9.03125 3.35498C9.72612 2.62292 10.9246 2.4136 12.3378 2.55598C13.6489 2.68773 14.9972 3.11167 15.9375 3.50479V14.048C14.9621 13.6761 13.6988 13.3127 12.4451 13.1874C11.2827 13.0694 10.0247 13.1459 9.03125 13.7101V3.35498ZM8.5 2.39448C7.45344 1.49454 5.93619 1.36067 4.55494 1.49879C2.94631 1.66135 1.32281 2.21279 0.311313 2.67285C0.218502 2.71506 0.139799 2.78309 0.0845973 2.86881C0.0293959 2.95454 2.82321e-05 3.05433 0 3.15629L0 14.8438C2.46096e-05 14.9327 0.022352 15.0201 0.0649369 15.0982C0.107522 15.1762 0.169003 15.2423 0.243749 15.2904C0.318495 15.3385 0.404116 15.3671 0.49277 15.3735C0.581423 15.3799 0.670276 15.364 0.751188 15.3272C1.68831 14.9022 3.19813 14.3912 4.66119 14.2435C6.15825 14.0926 7.41306 14.3359 8.08562 15.1753C8.1354 15.2373 8.19848 15.2874 8.2702 15.3218C8.34192 15.3562 8.42045 15.3741 8.5 15.3741C8.57955 15.3741 8.65808 15.3562 8.7298 15.3218C8.80152 15.2874 8.8646 15.2373 8.91438 15.1753C9.58694 14.3359 10.8418 14.0926 12.3378 14.2435C13.8019 14.3912 15.3127 14.9022 16.2488 15.3272C16.3297 15.364 16.4186 15.3799 16.5072 15.3735C16.5959 15.3671 16.6815 15.3385 16.7563 15.2904C16.831 15.2423 16.8925 15.1762 16.9351 15.0982C16.9776 15.0201 17 14.9327 17 14.8438V3.15629C17 3.05433 16.9706 2.95454 16.9154 2.86881C16.8602 2.78309 16.7815 2.71506 16.6887 2.67285C15.6772 2.21279 14.0537 1.66135 12.4451 1.49879C11.0638 1.3596 9.54656 1.49454 8.5 2.39448Z" fill="black"/>
</g>
<defs>
<clipPath id="clip0_283_5755">
<rect width="17" height="17" fill="white" transform="translate(0 0.5)"/>
</clipPath>
</defs>
</svg>
