<svg width="19" height="20" viewBox="0 0 19 20" fill="none" xmlns="http://www.w3.org/2000/svg">
<g clip-path="url(#clip0_283_5737)">
<path d="M9.49288 0.515381L8.78631 1.45351C8.65156 1.63177 8.58905 1.85433 8.61128 2.07669C8.63352 2.29905 8.73886 2.50483 8.90625 2.65288V5.24994H5.9375C5.30761 5.24994 4.70352 5.50017 4.25812 5.94556C3.81272 6.39096 3.5625 6.99505 3.5625 7.62494V11.1874H2.375C1.74511 11.1874 1.14102 11.4377 0.695621 11.8831C0.250223 12.3285 0 12.9326 0 13.5624L0 18.3124C0 18.6274 0.125111 18.9294 0.347811 19.1521C0.57051 19.3748 0.872555 19.4999 1.1875 19.4999H17.8125C18.1274 19.4999 18.4295 19.3748 18.6522 19.1521C18.8749 18.9294 19 18.6274 19 18.3124V13.5624C19 12.9326 18.7498 12.3285 18.3044 11.8831C17.859 11.4377 17.2549 11.1874 16.625 11.1874H15.4375V7.62494C15.4375 6.99505 15.1873 6.39096 14.7419 5.94556C14.2965 5.50017 13.6924 5.24994 13.0625 5.24994H10.0938V2.64457C10.2576 2.49539 10.3596 2.2903 10.3798 2.06965C10.4001 1.84901 10.337 1.62879 10.203 1.45232L9.49288 0.515381ZM4.75 7.62494C4.75 7.31 4.87511 7.00795 5.09781 6.78525C5.32051 6.56255 5.62256 6.43744 5.9375 6.43744H13.0625C13.3774 6.43744 13.6795 6.56255 13.9022 6.78525C14.1249 7.00795 14.25 7.31 14.25 7.62494V8.11657C14.1074 8.1174 13.966 8.08966 13.8343 8.03501C13.7025 7.98035 13.583 7.89987 13.4829 7.79832C13.2718 7.58705 13.0211 7.41945 12.7453 7.3051C12.4694 7.19075 12.1736 7.1319 11.875 7.1319C11.5764 7.1319 11.2806 7.19075 11.0047 7.3051C10.7289 7.41945 10.4782 7.58705 10.2671 7.79832C10.0636 8.00165 9.78769 8.11587 9.5 8.11587C9.21231 8.11587 8.93639 8.00165 8.73287 7.79832C8.52179 7.58705 8.27114 7.41945 7.99526 7.3051C7.71937 7.19075 7.42365 7.1319 7.125 7.1319C6.82635 7.1319 6.53063 7.19075 6.25474 7.3051C5.97886 7.41945 5.72821 7.58705 5.51713 7.79832C5.41696 7.89987 5.29749 7.98035 5.16574 8.03501C5.03399 8.08966 4.89263 8.1174 4.75 8.11657V7.62494ZM4.75 9.30407C5.33187 9.30407 5.91375 9.08201 6.35787 8.63907C6.56139 8.43574 6.83731 8.32152 7.125 8.32152C7.41269 8.32152 7.68861 8.43574 7.89213 8.63907C8.78037 9.52613 10.2196 9.52613 11.1079 8.63907C11.3114 8.43574 11.5873 8.32152 11.875 8.32152C12.1627 8.32152 12.4386 8.43574 12.6421 8.63907C13.0863 9.08201 13.6681 9.30407 14.25 9.30407V11.1874H4.75V9.30407ZM1.1875 13.5624C1.1875 13.2475 1.31261 12.9455 1.53531 12.7228C1.75801 12.5001 2.06006 12.3749 2.375 12.3749H16.625C16.9399 12.3749 17.242 12.5001 17.4647 12.7228C17.6874 12.9455 17.8125 13.2475 17.8125 13.5624V14.5041L17.3921 14.9245C17.2913 15.0254 17.1716 15.1054 17.0399 15.16C16.9082 15.2146 16.767 15.2426 16.6244 15.2426C16.4818 15.2426 16.3406 15.2146 16.2089 15.16C16.0772 15.1054 15.9575 15.0254 15.8567 14.9245C15.6456 14.7134 15.3951 14.546 15.1193 14.4317C14.8435 14.3175 14.5479 14.2587 14.2494 14.2587C13.9509 14.2587 13.6553 14.3175 13.3795 14.4317C13.1038 14.546 12.8532 14.7134 12.6421 14.9245C12.4386 15.1278 12.1627 15.2421 11.875 15.2421C11.5873 15.2421 11.3114 15.1278 11.1079 14.9245C10.8968 14.7132 10.6461 14.5456 10.3703 14.4313C10.0944 14.3169 9.79865 14.2581 9.5 14.2581C9.20135 14.2581 8.90563 14.3169 8.62974 14.4313C8.35386 14.5456 8.10321 14.7132 7.89213 14.9245C7.68861 15.1278 7.41269 15.2421 7.125 15.2421C6.83731 15.2421 6.56139 15.1278 6.35787 14.9245C6.14679 14.7132 5.89614 14.5456 5.62026 14.4313C5.34437 14.3169 5.04865 14.2581 4.75 14.2581C4.45135 14.2581 4.15563 14.3169 3.87974 14.4313C3.60386 14.5456 3.35321 14.7132 3.14212 14.9245C2.93861 15.1278 2.66269 15.2421 2.375 15.2421C2.08731 15.2421 1.81139 15.1278 1.60787 14.9245L1.1875 14.5041V13.5624ZM15.0171 15.7641C15.3782 16.1251 15.8503 16.3541 16.3574 16.4142C16.8645 16.4743 17.377 16.362 17.8125 16.0954V18.3124H1.1875V16.0954C2.06269 16.6321 3.22406 16.5229 3.98288 15.7629C4.18639 15.5595 4.46231 15.4453 4.75 15.4453C5.03769 15.4453 5.31361 15.5595 5.51713 15.7629C6.40538 16.6511 7.84462 16.6511 8.73287 15.7629C8.93639 15.5595 9.21231 15.4453 9.5 15.4453C9.78769 15.4453 10.0636 15.5595 10.2671 15.7629C11.1554 16.6511 12.5946 16.6511 13.4817 15.7629C13.5825 15.662 13.7022 15.582 13.8339 15.5274C13.9656 15.4728 14.1068 15.4447 14.2494 15.4447C14.392 15.4447 14.5332 15.4728 14.6649 15.5274C14.7966 15.582 14.9163 15.662 15.0171 15.7629V15.7641Z" fill="black"/>
</g>
<defs>
<clipPath id="clip0_283_5737">
<rect width="19" height="19" fill="white" transform="translate(0 0.5)"/>
</clipPath>
</defs>
</svg>
