<svg width="16" height="16" viewBox="0 0 16 16" fill="none" xmlns="http://www.w3.org/2000/svg">
<path d="M8 0C3.58874 0 0 3.58874 0 8C0 12.4113 3.58874 16 8 16C12.4113 16 16 12.4113 16 8C16 3.58874 12.4113 0 8 0ZM8 14.9593C4.16268 14.9593 1.04079 11.8374 1.04079 8C1.04079 4.16262 4.16268 1.04079 8 1.04079C11.8373 1.04079 14.9592 4.16268 14.9592 8C14.9592 11.8373 11.8374 14.9593 8 14.9593Z" fill="black"/>
<path d="M11.263 9.30366C11.0208 9.14887 10.6991 9.21958 10.5442 9.46163C10.0415 10.2476 9.18518 10.7168 8.25362 10.7168C6.75558 10.7168 5.53688 9.49805 5.53688 8.00002C5.53688 6.50198 6.75558 5.28322 8.25362 5.28322C9.15754 5.28322 9.99983 5.73116 10.5068 6.48145C10.6677 6.7195 10.9911 6.78218 11.2293 6.62126C11.4675 6.4604 11.5301 6.13689 11.3692 5.89873C10.6685 4.86158 9.50372 4.24243 8.25362 4.24243C6.1817 4.24243 4.49609 5.92804 4.49609 8.00002C4.49609 10.072 6.1817 11.7576 8.25362 11.7576C9.54194 11.7576 10.726 11.109 11.421 10.0224C11.5758 9.78034 11.5051 9.45856 11.263 9.30366Z" fill="black"/>
</svg>
