<svg width="60" height="61" viewBox="0 0 60 61" fill="none" xmlns="http://www.w3.org/2000/svg">
<g clip-path="url(#clip0_199_2581)">
<path fill-rule="evenodd" clip-rule="evenodd" d="M53.7503 54.26C51.8735 56.132 48.8327 56.132 46.9535 54.26L29.9615 37.2678L12.9695 54.26C11.0927 56.132 8.0495 56.132 6.1727 54.26C4.2959 52.364 4.2959 49.3401 6.1727 47.4441L23.1647 30.4519L6.1727 13.46C4.2959 11.588 4.2959 8.5398 6.1727 6.6678C8.0495 4.7958 11.0927 4.7958 12.9695 6.6678L29.9615 23.66L46.9535 6.6678C48.8327 4.7958 51.8735 4.7958 53.7503 6.6678C55.6295 8.5398 55.6295 11.588 53.7503 13.46L36.7583 30.4519L53.7503 47.4441C55.6295 49.3401 55.6295 52.364 53.7503 54.26ZM43.5551 30.4519L57.1511 16.8678C60.9023 13.1238 60.9023 7.02801 57.1511 3.28401C53.3951 -0.483992 47.3087 -0.483992 43.5551 3.28401L29.9615 16.8678L16.3679 3.28401C12.6167 -0.483992 6.53034 -0.483992 2.77434 3.28401C-0.976862 7.02801 -0.976862 13.1238 2.77434 16.8678L16.3679 30.4519L2.77434 44.06C-0.976862 47.804 -0.976862 53.9001 2.77434 57.6441C6.53034 61.4121 12.6167 61.4121 16.3679 57.6441L29.9615 44.06L43.5551 57.6441C47.3087 61.4121 53.3951 61.4121 57.1511 57.6441C60.9023 53.9001 60.9023 47.804 57.1511 44.06L43.5551 30.4519Z" fill="#F288A4"/>
</g>
<defs>
<clipPath id="clip0_199_2581">
<rect width="60" height="60" fill="white" transform="translate(0 0.5)"/>
</clipPath>
</defs>
</svg>
