<svg width="1440" height="62" viewBox="0 0 1440 62" fill="none" xmlns="http://www.w3.org/2000/svg">
<line x1="-252.5" y1="30" x2="647.5" y2="30" stroke="white" stroke-width="2"/>
<path fill-rule="evenodd" clip-rule="evenodd" d="M747.86 0.242551C743.937 1.08871 739.854 3.97167 737.465 7.58112C736.595 8.89596 736.45 9.58913 736.832 10.5946C737.208 11.5845 738.058 12.1582 739.15 12.1582C740.202 12.1582 740.791 11.7841 741.62 10.5889C743.44 7.96474 745.938 6.07737 748.458 5.42108C750.313 4.938 751.883 5.20517 752.206 6.05877C752.717 7.41049 751.785 10.2459 749.88 13.1269C749.308 13.9936 749.273 14.1138 749.339 15.0274C749.397 15.8294 749.493 16.0922 749.882 16.5075C750.784 17.4716 751.803 17.6822 752.925 17.1362C753.915 16.655 755.633 13.9069 756.667 11.1526C758.433 6.44611 757.312 2.48167 753.733 0.780619C752.042 -0.0233304 749.972 -0.212875 747.86 0.242551ZM686.081 2.18797C683.421 2.90686 681.309 5.28959 680.744 8.21008C680.505 9.44422 680.627 11.6714 681.002 12.9295C681.76 15.4747 683.648 18.2398 686.038 20.3054C687.867 21.8861 688.78 22.3723 689.72 22.2657C691.026 22.1179 692.019 21.0256 692.018 19.7385C692.017 18.7125 691.629 18.152 690.12 16.9976C687.911 15.308 686.465 13.4038 685.99 11.5612C685.153 8.30841 686.779 6.30201 689.31 7.46629C690.487 8.00808 691.916 9.38099 693.207 11.2113C693.8 12.0518 694.476 12.8654 694.71 13.0194C695.388 13.4661 696.363 13.5038 697.126 13.1127C698.11 12.6081 698.536 11.9109 698.536 10.8032C698.536 9.9535 698.468 9.79 697.57 8.45979C694.227 3.50865 689.911 1.15275 686.081 2.18797ZM717.847 9.27635C717.261 9.53802 716.719 10.1091 716.497 10.6983C716.264 11.3143 715.83 16.174 715.789 18.6155C715.758 20.4613 715.788 20.707 716.087 21.1122C716.714 21.9624 717.23 22.2288 718.249 22.2288C719.262 22.2288 719.782 21.9636 720.4 21.1307C720.671 20.7666 720.753 20.2381 720.927 17.7443C721.04 16.1191 721.216 14.0156 721.319 13.0698C721.531 11.1095 721.415 10.4988 720.7 9.8128C719.907 9.05252 718.81 8.84615 717.847 9.27635ZM707.628 10.8377C706.74 11.2122 706.344 11.8179 705.736 13.7345C705.239 15.2984 705.143 15.8318 705.139 17.0535C705.133 18.7701 705.416 19.4196 706.43 20.0117C708.139 21.0095 710.203 19.7138 710.203 17.6437C710.203 17.0909 710.396 16.1262 710.704 15.1361C711.395 12.9154 711.241 12.0252 710.004 11.0974C709.515 10.7309 708.218 10.5891 707.628 10.8377ZM728.138 11.2072C727.486 11.5046 726.815 12.3288 726.693 12.9809C726.639 13.2709 726.618 14.6829 726.646 16.1187C726.693 18.4559 726.733 18.7759 727.03 19.1752C727.661 20.0235 728.175 20.2881 729.192 20.2881C730.21 20.2881 730.724 20.0232 731.355 19.1746C731.663 18.7604 731.687 18.5062 731.687 15.6788C731.687 12.3427 731.653 12.2088 730.603 11.4209C730.07 11.0212 728.79 10.9103 728.138 11.2072ZM728.898 34.4396C727.408 34.6511 726.852 34.8785 726.312 35.497C725.16 36.8152 725.592 38.7652 727.206 39.5348C727.744 39.7917 727.95 39.7986 729.465 39.6107C730.635 39.4656 731.694 39.4449 733.019 39.5413C736.03 39.7604 736.514 39.7388 737.016 39.3619C737.86 38.7283 738.124 38.2114 738.124 37.1886C738.124 35.7302 737.351 34.8746 735.787 34.6003C734.501 34.3746 730.082 34.2716 728.898 34.4396ZM709.738 34.9275C707.391 35.2904 705.474 35.6731 704.404 35.9923C702.441 36.5781 701.843 38.903 703.297 40.2929C704.152 41.1104 704.746 41.1954 706.604 40.7665C707.433 40.5752 709.296 40.2455 710.745 40.0339C712.193 39.8224 713.53 39.5677 713.715 39.468C714.296 39.1556 714.905 38.1969 714.987 37.4657C715.09 36.5532 714.734 35.73 713.99 35.1603C713.222 34.5716 712.35 34.5239 709.738 34.9275ZM755.745 37.1838C753.134 38.0667 750.46 38.9565 749.803 39.1614C748.844 39.4601 748.515 39.6511 748.135 40.128C747.217 41.2817 747.417 42.8551 748.595 43.7577C749.694 44.5993 750.312 44.4882 756.863 42.2721C762.317 40.4268 762.587 40.3163 763.037 39.748C764.318 38.1276 763.297 35.7742 761.25 35.6315C760.633 35.5885 759.615 35.8754 755.745 37.1838ZM675.998 40.3168C674.926 40.8089 674.32 42.0374 674.548 43.2568C674.682 43.9747 675.462 44.8806 676.135 45.0991C676.418 45.1909 678.424 45.4515 680.592 45.6777C685.245 46.1634 687.939 46.593 689.88 47.1587C691.909 47.7501 692.794 47.5614 693.698 46.3449C694.163 45.7187 694.163 44.1845 693.698 43.5583C693.13 42.7936 692.641 42.5451 690.731 42.0502C688.243 41.4055 686.538 41.1266 682.223 40.658C676.862 40.0758 676.559 40.0593 675.998 40.3168ZM719.953 44.9555C717.986 45.4571 715.214 46.7078 714.517 47.4087C713.496 48.4347 713.495 49.7531 714.515 51.0293C715.8 52.6387 716.241 53.0216 716.937 53.1336C717.581 53.2371 717.606 53.2633 717.606 53.8356C717.606 54.6551 716.853 55.8071 716.058 56.2033C715.087 56.6875 712.888 56.618 711.39 56.0558C709.324 55.2798 707.99 55.5815 707.318 56.9765C706.929 57.7844 706.899 58.3456 707.206 59.0675C707.571 59.9239 708.285 60.4535 709.75 60.9544C713.24 62.1473 716.528 61.976 718.942 60.4755L719.715 59.9949L720.551 60.628C721.968 61.7008 722.887 61.9888 724.928 61.9996C726.969 62.0105 727.899 61.7813 729.95 60.7637C731.422 60.0327 733.606 58.3782 734.197 57.545C734.717 56.8124 734.742 55.3793 734.247 54.7075C733.676 53.9335 732.929 53.5232 732.089 53.5232C731.284 53.5232 731.16 53.5916 729.364 55.0261C728.08 56.0528 726.532 56.7669 725.36 56.8737C724.109 56.9877 723.516 56.682 723.178 55.7503C722.846 54.8354 722.837 54.7373 722.98 53.5896C723.1 52.6296 723.12 52.5961 723.796 52.2662C725.36 51.5029 726.415 50.1141 726.569 48.6173C726.642 47.8983 726.586 47.5795 726.256 46.8564C725.37 44.9099 722.97 44.1863 719.953 44.9555ZM752.635 48.0503C750.583 48.2178 749.989 48.4321 749.39 49.2212C748.512 50.3782 748.724 51.9264 749.882 52.8145C750.404 53.2151 750.616 53.2756 751.388 53.245C751.881 53.2254 754.856 53.1824 757.998 53.1492C764.312 53.0826 764.365 53.0744 765.107 52.0296C765.612 51.3172 765.634 49.8713 765.15 49.2188C764.474 48.3095 764.072 48.1379 762.308 48.0053C760.163 47.8439 754.859 47.8685 752.635 48.0503ZM689.524 50.8577C680.109 53.0537 676.686 54.0184 675.977 54.6753C674.788 55.7764 674.867 57.6322 676.144 58.6108C677.032 59.2915 677.666 59.2951 679.837 58.6321C682.292 57.8824 684.51 57.3243 689.81 56.1234C692.18 55.5865 694.259 55.0719 694.43 54.9798C694.987 54.6802 695.595 53.7098 695.676 52.9916C695.838 51.5468 694.783 50.2829 693.339 50.1922C692.862 50.1621 691.449 50.4086 689.524 50.8577Z" fill="white"/>
<line x1="792.5" y1="30" x2="1692.5" y2="30" stroke="white" stroke-width="2"/>
</svg>
