<svg width="20" height="20" viewBox="0 0 20 20" fill="none" xmlns="http://www.w3.org/2000/svg">
<path d="M7.57617 2.72956C7.57617 2.06034 8.11868 1.51782 8.7879 1.51782H17.27C17.9392 1.51782 18.4818 2.06034 18.4818 2.72956V17.2703C18.4818 17.9397 17.9392 18.4821 17.27 18.4821H13.029" stroke="black" stroke-linecap="round" stroke-linejoin="round"/>
<path d="M11.5138 10.0012C12.6853 10.0012 13.635 9.05152 13.635 7.88C13.635 6.70849 12.6853 5.75879 11.5138 5.75879C10.3423 5.75879 9.39258 6.70849 9.39258 7.88C9.39258 9.05152 10.3423 10.0012 11.5138 10.0012Z" stroke="black" stroke-linecap="round" stroke-linejoin="round"/>
<path d="M3.94141 8.78833L6.40876 8.78836C6.76869 8.78836 7.11388 8.93135 7.36838 9.18585L10.8145 12.6319C11.069 12.8865 11.4142 13.0294 11.7741 13.0294L13.6353 13.0294" stroke="black" stroke-linecap="round" stroke-linejoin="round"/>
<path d="M8.78798 10.6057L5.55027 13.8434C5.29577 14.0979 4.95057 14.2409 4.59064 14.2409H1.51758" stroke="black" stroke-linecap="round" stroke-linejoin="round"/>
<path d="M6.36523 13.0293L8.3912 15.0553C8.64572 15.3097 8.78871 15.655 8.78871 16.0149V18.4821" stroke="black" stroke-linecap="round" stroke-linejoin="round"/>
</svg>
