<svg width="73" height="65" viewBox="0 0 73 65" fill="none" xmlns="http://www.w3.org/2000/svg">
<path fill-rule="evenodd" clip-rule="evenodd" d="M20.694 0.0751672C14.8467 0.687072 9.92029 3.3523 5.95955 8.04643C3.70563 10.7177 1.87825 14.2182 0.886524 17.764C-1.59235 26.6267 1.13035 35.7097 9.01609 44.8844C10.3859 46.4782 13.5262 49.6332 15.3955 51.2939C20.1535 55.5211 26.461 59.9804 32.2568 63.2147C34.8527 64.6634 35.6504 64.9976 36.5177 65C37.1856 65.0019 37.3827 64.9439 38.4342 64.4367C41.4057 63.0034 45.8643 60.2572 50.0435 57.2861C53.9211 54.5295 57.0154 51.9598 60.1973 48.8535C64.8166 44.3444 67.8827 40.3161 70.0448 35.916C71.1435 33.6799 71.652 32.3563 72.1788 30.3598C72.7182 28.3164 72.907 27.0584 72.9844 24.9911C73.192 19.4491 71.3231 13.6673 67.813 8.994C66.8725 7.74165 64.8798 5.67651 63.6958 4.72705C57.9932 0.154098 50.5588 -1.1939 43.6387 1.09051C41.3924 1.83195 39.1147 3.06268 37.2998 4.51535C36.9034 4.83262 36.5346 5.09225 36.4802 5.09225C36.4258 5.09225 36.0676 4.83262 35.684 4.51524C33.7508 2.91553 31.1031 1.542 28.5467 0.812262C26.2726 0.163236 22.8882 -0.154478 20.694 0.0751672ZM25.4919 5.83124C26.6264 6.02488 28.453 6.6136 29.4438 7.10511C30.7979 7.77665 32.0519 8.70393 33.5722 10.1581C35.1958 11.7111 35.505 11.8931 36.5166 11.8918C37.5263 11.8905 37.7917 11.7357 39.3545 10.2356C41.0509 8.60739 41.9013 7.97441 43.4313 7.20165C46.8346 5.48254 50.9813 5.12224 54.7385 6.21919C60.3581 7.8597 65.125 13.0928 66.7608 19.4172C67.2483 21.3021 67.3445 22.0969 67.3403 24.2108C67.3353 26.8752 66.9596 28.8066 65.9454 31.3835C63.4697 37.6744 57.7252 44.4005 49.2569 50.9239C45.8376 53.558 40.8548 56.8218 37.3709 58.7095L36.4966 59.1832L35.236 58.4851C26.154 53.4554 17.5297 46.5259 12.2804 40.0407C9.14688 36.1694 6.73981 31.5221 6.00382 27.9225C4.50803 20.6064 7.6403 12.7171 13.7498 8.41252C15.2859 7.33018 17.7757 6.24449 19.5604 5.87862C21.2858 5.5249 23.5889 5.50651 25.4919 5.83124Z" fill="#F291A3"/>
</svg>
