<svg width="74" height="65" viewBox="0 0 74 65" fill="none" xmlns="http://www.w3.org/2000/svg">
<path fill-rule="evenodd" clip-rule="evenodd" d="M21.194 0.0751689C15.3467 0.687074 10.4203 3.3523 6.45955 8.04643C4.20563 10.7177 2.37825 14.2182 1.38652 17.764C-1.09235 26.6268 1.63035 35.7097 9.51609 44.8843C10.8859 46.4782 14.0262 49.6332 15.8955 51.2939C20.6535 55.5211 26.961 59.9804 32.7568 63.2147C35.3527 64.6634 36.1504 64.9976 37.0177 65C37.6856 65.0018 37.8827 64.9439 38.9342 64.4367C41.9057 63.0034 46.3643 60.2572 50.5435 57.2861C54.4211 54.5295 57.5154 51.9598 60.6973 48.8535C65.3166 44.3443 68.3827 40.3161 70.5448 35.916C71.6435 33.6799 72.152 32.3563 72.6788 30.3598C73.2182 28.3164 73.407 27.0584 73.4844 24.9911C73.692 19.4491 71.8231 13.6673 68.313 8.994C67.3725 7.74165 65.3798 5.67651 64.1958 4.72705C58.4932 0.154095 51.0588 -1.1939 44.1387 1.09051C41.8924 1.83196 39.6147 3.06268 37.7998 4.51535C37.4034 4.83262 37.0346 5.09225 36.9802 5.09225C36.9258 5.09225 36.5676 4.83262 36.184 4.51524C34.2508 2.91553 31.6031 1.542 29.0467 0.812264C26.7726 0.163237 23.3882 -0.154477 21.194 0.0751689ZM25.9919 5.83124C27.1264 6.02488 28.953 6.6136 29.9438 7.10511C31.2979 7.77665 32.5519 8.70393 34.0722 10.1581C35.6958 11.7111 36.005 11.8931 37.0166 11.8918C38.0263 11.8905 38.2917 11.7357 39.8545 10.2356C41.5509 8.60739 42.4013 7.97442 43.9313 7.20165C47.3346 5.48254 51.4813 5.12224 55.2385 6.21919C60.8581 7.8597 65.625 13.0928 67.2608 19.4172C67.7483 21.3021 67.8445 22.0969 67.8403 24.2108C67.8353 26.8752 67.4596 28.8066 66.4454 31.3835C63.9697 37.6744 58.2252 44.4005 49.7569 50.9239C46.3376 53.558 41.3548 56.8218 37.8709 58.7095L36.9966 59.1832L35.736 58.485C26.654 53.4554 18.0297 46.5259 12.7804 40.0407C9.64688 36.1694 7.23981 31.5221 6.50382 27.9225C5.00803 20.6064 8.1403 12.7172 14.2498 8.41253C15.7859 7.33018 18.2757 6.24449 20.0604 5.87862C21.7858 5.5249 24.0889 5.50651 25.9919 5.83124ZM23.7191 13.6265C23.3651 13.7116 22.8089 13.9149 22.4831 14.0782C21.7116 14.4648 20.5101 15.686 20.1352 16.4644C19.5963 17.5837 19.5362 18.0718 19.5456 21.2566C19.5552 24.4742 19.6493 25.1851 20.2121 26.2867L20.5026 26.8557L20.2067 27.6478C19.7675 28.8232 19.6045 29.7448 19.5193 31.5319L19.4428 33.1389L18.4756 33.5112C16.9684 34.0915 15.9884 34.6337 15.7522 35.0178C15.3445 35.6813 15.5694 36.5681 16.2498 36.9795C16.7809 37.3009 17.1407 37.2522 18.3716 36.6925C18.9831 36.4143 19.532 36.2167 19.5914 36.2531C19.6508 36.2896 19.6995 36.4379 19.6995 36.5828C19.6995 36.7277 19.8531 37.2891 20.0407 37.8303L20.382 38.8145L20.0181 39.0932C19.818 39.2464 19.4621 39.5541 19.2274 39.7767C18.8604 40.1249 18.8007 40.25 18.801 40.6686C18.8015 41.3001 19.139 41.8454 19.6639 42.0631C20.1923 42.2821 20.6111 42.1959 21.3798 41.7101C21.7167 41.4971 22.0315 41.3227 22.0791 41.3227C22.1268 41.3227 22.5589 41.6375 23.0394 42.0225C25.1324 43.6986 27.7313 44.8438 31.1606 45.601C35.2013 46.4932 39.6605 46.419 43.7465 45.3915C46.9811 44.578 49.0459 43.5617 51.4757 41.5873C51.8893 41.2512 51.8016 41.2315 53.0717 41.9438C53.4577 42.1603 53.6676 42.2108 53.9589 42.1571C54.7631 42.0091 55.2066 41.4721 55.2066 40.6463C55.2066 40.2538 55.1404 40.1189 54.7797 39.7767C54.545 39.5541 54.187 39.2464 53.9842 39.0932L53.6155 38.8145L53.9616 37.7947C54.152 37.2338 54.3085 36.7071 54.3094 36.6241C54.3147 36.1624 54.4884 36.1708 55.6241 36.6872C56.8664 37.2522 57.2255 37.3014 57.7574 36.9795C58.4655 36.5512 58.6532 35.6384 58.1805 34.9226C57.6213 34.076 52.2593 32.1815 50.4219 32.1815C49.7537 32.1815 49.6649 32.2112 49.2777 32.5631C48.8903 32.9154 48.858 32.9919 48.858 33.559C48.858 34.0877 48.9043 34.2214 49.1897 34.517C49.5264 34.8656 49.8937 35.0017 50.8499 35.1319C51.1419 35.1717 51.4007 35.239 51.4248 35.2815C51.4835 35.3851 51.1981 36.7276 51.0331 37.1241C50.9238 37.3865 50.8519 37.4297 50.6101 37.3782C49.1785 37.0728 48.8288 37.0553 48.3989 37.2671C48.165 37.3824 47.8749 37.6107 47.7544 37.7745C47.2905 38.4047 47.6274 39.5755 48.3591 39.8763L48.7009 40.0168L48.2177 40.3416C44.3007 42.9746 37.5585 43.9174 31.6663 42.656C29.5509 42.2032 27.1407 41.2638 25.7476 40.3491L25.3127 40.0636L25.6784 39.843C26.1298 39.5706 26.2942 39.3639 26.43 38.8981C26.6539 38.1297 26.0977 37.2906 25.2612 37.1348C25.0354 37.0929 24.5167 37.1417 24.0164 37.2522C23.5159 37.3627 23.1169 37.4002 23.0586 37.3424C22.8803 37.1655 22.4793 35.3988 22.5922 35.2868C22.6503 35.2292 23.047 35.1288 23.474 35.0634C24.4194 34.919 24.8075 34.7074 25.0477 34.2054C25.3308 33.6133 25.1999 32.9908 24.6959 32.5325C24.29 32.1637 24.2732 32.1594 23.3813 32.1996L22.4777 32.2402L22.5465 31.124C22.6789 28.9788 23.1167 28.0066 24.6147 26.5302L25.6548 25.5054V24.8897C25.6548 24.338 25.615 24.2345 25.2723 23.8945C24.6301 23.2574 23.8309 23.2734 22.9796 23.94L22.6771 24.1769L22.6051 23.525C22.4938 22.519 22.501 19.3885 22.6164 18.5969C22.7555 17.6423 23.1392 17.0823 23.8922 16.7344C24.9927 16.226 25.7152 16.3967 28.0236 17.7105C29.9079 18.7827 31.0305 19.3177 31.6868 19.4561C32.1375 19.5511 32.6584 19.5394 33.9903 19.4045C35.6877 19.2325 36.8185 19.2366 40.9986 19.43C42.7398 19.5106 42.7389 19.511 45.3747 18.036C48.3699 16.3598 49.0285 16.1854 50.1526 16.7696C50.6172 17.0111 50.8167 17.2063 51.0924 17.6893L51.4424 18.3024L51.44 21.1661C51.4387 22.7411 51.4041 24.063 51.3632 24.1037C51.3222 24.1444 51.1164 24.0473 50.9061 23.8881C50.326 23.4492 49.9141 23.3391 49.3827 23.4812C48.6916 23.6657 48.3524 24.1371 48.3524 24.9126V25.5414L49.3356 26.4686C50.5711 27.6337 50.8119 27.7675 51.6842 27.7734C52.2832 27.7774 52.4396 27.732 52.8574 27.4317C53.4616 26.9974 53.9022 26.2326 54.2036 25.0948C54.4097 24.3169 54.4401 23.8561 54.4564 21.2566C54.4769 17.9717 54.4066 17.4869 53.7261 16.2201C52.6796 14.2723 50.0518 13.0753 47.9246 13.5777C47.2319 13.7412 45.4465 14.5797 43.6898 15.5665C42.9133 16.0028 42.1485 16.4084 41.9903 16.4682C41.7948 16.5419 41.1612 16.5227 40.0116 16.4083C37.9123 16.1995 36.1951 16.1981 34.0603 16.4036C33.0925 16.4967 32.2755 16.5245 32.0862 16.4706C31.9085 16.4201 31.1202 16.0176 30.3343 15.5761C28.5184 14.556 26.7535 13.7203 26.1042 13.5732C25.4218 13.4186 24.4979 13.4392 23.7191 13.6265ZM30.2055 29.2154C29.7425 29.4166 29.1862 30.0069 28.8866 30.6147C28.6916 31.0104 28.636 31.3211 28.6345 32.0222C28.6327 32.8053 28.6761 33.0061 28.9695 33.5719C29.1549 33.9295 29.4991 34.3758 29.7343 34.564C30.0979 34.8549 30.2747 34.9121 30.9141 34.9453C31.5883 34.9804 31.7186 34.9511 32.1719 34.6618C33.5681 33.7707 33.851 31.1756 32.6942 29.8685C32.0573 29.1488 30.998 28.8708 30.2055 29.2154ZM42.0759 29.3008C40.3153 30.1653 40.128 33.2608 41.7573 34.564C42.1209 34.8549 42.2977 34.9121 42.9371 34.9453C43.5996 34.9797 43.7434 34.9491 44.1433 34.6879C44.9552 34.1579 45.4309 33.171 45.4309 32.0168C45.4309 29.8808 43.7181 28.4942 42.0759 29.3008ZM35.9624 34.8594C34.3854 35.2556 33.6201 36.4109 34.1776 37.5536C34.6311 38.483 35.8332 38.9506 37.4816 38.8389C38.8905 38.7432 39.8522 38.091 40.0335 37.1081C40.2732 35.8074 39.2052 34.8957 37.331 34.8009C36.811 34.7746 36.1952 34.8009 35.9624 34.8594Z" fill="#F291A3" fill-opacity="0.84"/>
</svg>
