<svg width="26" height="26" viewBox="0 0 26 26" fill="none" xmlns="http://www.w3.org/2000/svg">
<path d="M25.1562 10.0829C25.1543 9.99549 25.1271 9.91065 25.0782 9.83901L22.4758 6.1369C22.4355 6.07899 22.3821 6.03184 22.3202 5.99943C22.2583 5.96702 22.1897 5.9503 22.1202 5.95068H17.4099V1.56579C17.4099 1.18833 17.2632 0.826329 17.0021 0.559426C16.741 0.292523 16.3868 0.142578 16.0176 0.142578H9.13866C8.76941 0.142578 8.41528 0.292523 8.15418 0.559426C7.89308 0.826329 7.74639 1.18833 7.74639 1.56579V5.95068H3.0361C2.96729 5.95101 2.89954 5.96807 2.83845 6.00044C2.77736 6.03282 2.72469 6.0796 2.68478 6.1369L0.0824084 9.83901C0.0313237 9.91485 0.00271157 10.0041 0 10.0962V12.7564C0.00145356 13.0772 0.118635 13.3863 0.329108 13.6243C0.539581 13.8624 0.828557 14.0127 1.14071 14.0466V25.4145C1.14071 25.5321 1.1864 25.6448 1.26774 25.728C1.34908 25.8111 1.4594 25.8579 1.57443 25.8579H23.5818C23.6968 25.8579 23.8072 25.8111 23.8885 25.728C23.9698 25.6448 24.0155 25.5321 24.0155 25.4145V14.0466C24.3277 14.0127 24.6167 13.8624 24.8271 13.6243C25.0376 13.3863 25.1548 13.0772 25.1562 12.7564C25.1562 12.7342 25.1562 10.1006 25.1562 10.0829ZM9.93238 2.88259C10.0613 2.85606 10.1946 2.86198 10.3208 2.89982C10.447 2.93767 10.5622 3.00631 10.6567 3.09983C10.4095 1.70766 11.9319 0.741123 12.5781 2.1466C13.2244 0.741123 14.7468 1.70323 14.4995 3.09983C15.2629 2.42148 16.126 3.30822 15.8614 4.32353C15.7357 5.00188 15.1284 5.61816 14.4909 5.2679C14.7067 5.41789 14.8701 5.63427 14.9574 5.88565C15.0447 6.13703 15.0514 6.41032 14.9765 6.66584C14.9015 6.92136 14.7489 7.14582 14.5407 7.30662C14.3324 7.46743 14.0795 7.55622 13.8186 7.5601C13.3849 7.5601 13.0205 7.32069 12.5781 7.33399C12.1357 7.34729 11.7931 7.5601 11.355 7.5601C11.0926 7.55995 10.8372 7.47384 10.6261 7.3144C10.4151 7.15497 10.2596 6.9306 10.1825 6.67421C10.1054 6.41783 10.1106 6.14292 10.1975 5.88982C10.2844 5.63673 10.4484 5.41876 10.6654 5.2679C9.32516 5.90635 8.67457 3.14861 9.93238 2.88259ZM3.2573 6.83742H7.74639V7.4537C7.74639 7.83116 7.89308 8.19315 8.15418 8.46006C8.41528 8.72696 8.76941 8.8769 9.13866 8.8769H16.0176C16.3868 8.8769 16.741 8.72696 17.0021 8.46006C17.2632 8.19315 17.4099 7.83116 17.4099 7.4537V6.83742H21.899L23.8768 9.6528H1.30119L3.2573 6.83742ZM18.8932 12.7564C18.887 12.8648 18.8421 12.9672 18.7669 13.044C18.6918 13.1209 18.5916 13.1668 18.4855 13.1731H17.4662C17.3581 13.1731 17.2544 13.1292 17.178 13.0511C17.1015 12.9729 17.0585 12.8669 17.0585 12.7564V10.5395H18.8932V12.7564ZM13.4933 12.7564C13.4933 12.8669 13.4503 12.9729 13.3739 13.0511C13.2974 13.1292 13.1937 13.1731 13.0856 13.1731H12.0707C11.9625 13.1731 11.8588 13.1292 11.7824 13.0511C11.7059 12.9729 11.663 12.8669 11.663 12.7564V10.5395H13.4933V12.7564ZM8.09771 12.7564C8.09771 12.8669 8.05476 12.9729 7.9783 13.0511C7.90184 13.1292 7.79814 13.1731 7.69001 13.1731H6.67074C6.56261 13.1731 6.45891 13.1292 6.38245 13.0511C6.30599 12.9729 6.26304 12.8669 6.26304 12.7564V10.5395H8.09771V12.7564ZM0.867457 12.7564V10.5395H2.69779V12.7564C2.69779 12.8669 2.65484 12.9729 2.57838 13.0511C2.50192 13.1292 2.39822 13.1731 2.29009 13.1731H1.27516C1.16703 13.1731 1.06333 13.1292 0.986871 13.0511C0.910411 12.9729 0.867457 12.8669 0.867457 12.7564ZM14.7771 24.9711V15.4343H20.819V24.9711H14.7771ZM21.6864 24.9711V14.9909C21.6864 14.8733 21.6407 14.7606 21.5594 14.6774C21.478 14.5943 21.3677 14.5476 21.2527 14.5476H14.3434C14.2284 14.5476 14.118 14.5943 14.0367 14.6774C13.9554 14.7606 13.9097 14.8733 13.9097 14.9909V24.9711H2.00816V14.0599C2.2077 14.0859 2.41035 14.0699 2.60357 14.0127C2.7968 13.9555 2.97649 13.8584 3.13152 13.7273C3.53489 14.1707 4.4327 14.0421 4.99221 14.0599C5.30185 14.0585 5.60003 13.9401 5.82931 13.7273C6.23268 14.1707 7.1305 14.0421 7.69001 14.0599C8.00083 14.0579 8.30018 13.9396 8.53144 13.7273C8.93047 14.1707 9.83262 14.0421 10.3878 14.0599C10.6988 14.0588 10.9984 13.9404 11.2292 13.7273C11.6283 14.1707 12.5521 14.0421 13.0856 14.0599C13.3966 14.0588 13.6962 13.9404 13.927 13.7273C14.3261 14.1707 15.2282 14.0421 15.7834 14.0599C16.0944 14.0588 16.394 13.9404 16.6248 13.7273C17.0282 14.1707 17.9477 14.0421 18.4855 14.0599C18.7963 14.0579 19.0957 13.9396 19.3269 13.7273C19.726 14.1707 20.6281 14.0421 21.1833 14.0599C21.4943 14.0588 21.7939 13.9404 22.0247 13.7273C22.1798 13.8584 22.3595 13.9555 22.5527 14.0127C22.7459 14.0699 22.9485 14.0859 23.1481 14.0599V24.9711H21.6864ZM24.2888 12.7564C24.2888 12.8669 24.2458 12.9729 24.1694 13.0511C24.0929 13.1292 23.9892 13.1731 23.8811 13.1731H22.8662C22.758 13.1731 22.6543 13.1292 22.5779 13.0511C22.5014 12.9729 22.4585 12.8669 22.4585 12.7564V10.5395H24.2888V12.7564Z" fill="black"/>
</svg>
