<svg width="90" height="60" viewBox="0 0 90 60" fill="none" xmlns="http://www.w3.org/2000/svg">
<path id="home page nav cat button" fill-rule="evenodd" clip-rule="evenodd" d="M72.2477 0.234727C68.411 1.05359 64.4172 3.84355 62.0815 7.33656C61.2307 8.609 61.0882 9.2798 61.4619 10.2528C61.8297 11.2108 62.6615 11.766 63.7288 11.766C64.7581 11.766 65.3338 11.404 66.1447 10.2474C67.925 7.70781 70.3675 5.88133 72.8326 5.24621C74.6465 4.77871 76.1824 5.03726 76.4982 5.86333C76.9984 7.17144 76.086 9.9154 74.2237 12.7035C73.6636 13.5422 73.6301 13.6585 73.6944 14.5426C73.7508 15.3188 73.8451 15.5731 74.2252 15.975C75.1073 16.908 76.1044 17.1118 77.2017 16.5834C78.1692 16.1178 79.8496 13.4583 80.8609 10.7928C82.5887 6.23817 81.4922 2.40162 77.9918 0.755438C76.3375 -0.0225778 74.3131 -0.206008 72.2477 0.234727ZM11.8263 2.11739C9.22462 2.81309 7.15934 5.11896 6.60674 7.94524C6.37302 9.13957 6.492 11.2949 6.85888 12.5124C7.60082 14.9755 9.44732 17.6514 11.7844 19.6504C13.573 21.1801 14.466 21.6506 15.3852 21.5474C16.6624 21.4044 17.6337 20.3473 17.6326 19.1018C17.6318 18.1089 17.2522 17.5664 15.7763 16.4493C13.6164 14.8142 12.2018 12.9714 11.7377 11.1883C10.9186 8.04039 12.5092 6.09872 14.9843 7.22544C16.1358 7.74975 17.5331 9.07837 18.7957 10.8496C19.3755 11.663 20.037 12.4504 20.2657 12.5994C20.9293 13.0317 21.8826 13.0681 22.6288 12.6897C23.5914 12.2014 24.0075 11.5267 24.0075 10.4547C24.0075 9.63242 23.9416 9.47419 23.0632 8.18689C19.7939 3.39546 15.5726 1.11557 11.8263 2.11739ZM42.8944 8.97711C42.3213 9.23034 41.7909 9.78299 41.5737 10.3532C41.3466 10.9493 40.922 15.6523 40.8818 18.015C40.8516 19.8012 40.8802 20.039 41.1728 20.4312C41.7865 21.254 42.2909 21.5118 43.2878 21.5118C44.2785 21.5118 44.7865 21.2551 45.3917 20.449C45.6563 20.0967 45.7365 19.5853 45.9062 17.1719C46.0167 15.5991 46.1893 13.5635 46.2898 12.6482C46.4978 10.7512 46.3843 10.1602 45.6844 9.49626C44.9088 8.7605 43.836 8.56079 42.8944 8.97711ZM32.9001 10.4881C32.031 10.8505 31.6441 11.4367 31.0492 13.2915C30.5638 14.8049 30.47 15.3211 30.4657 16.5034C30.4596 18.1646 30.7369 18.7932 31.7285 19.3661C33.3993 20.3318 35.4183 19.0779 35.4183 17.0745C35.4183 16.5396 35.6067 15.606 35.908 14.6478C36.5838 12.4988 36.433 11.6373 35.2236 10.7394C34.7458 10.3848 33.4771 10.2475 32.9001 10.4881ZM52.9595 10.8457C52.3219 11.1335 51.665 11.9311 51.5458 12.5621C51.4929 12.8428 51.4723 14.2093 51.5002 15.5988C51.5455 17.8605 51.5848 18.1702 51.8754 18.5567C52.4927 19.3776 52.9954 19.6336 53.9904 19.6336C54.9857 19.6336 55.4888 19.3773 56.1054 18.556C56.4063 18.1552 56.43 17.9092 56.43 15.1731C56.43 11.9446 56.3966 11.815 55.3696 11.0524C54.8486 10.6657 53.5966 10.5583 52.9595 10.8457ZM53.7028 33.3286C52.2454 33.5334 51.7015 33.7534 51.173 34.3519C50.0465 35.6276 50.4689 37.5147 52.0477 38.2595C52.5742 38.508 52.7753 38.5148 54.2572 38.3329C55.4016 38.1925 56.437 38.1725 57.7325 38.2658C60.6779 38.4778 61.151 38.4569 61.6421 38.0922C62.4679 37.479 62.7256 36.9788 62.7256 35.989C62.7256 34.5776 61.9701 33.7497 60.4401 33.4842C59.1819 33.2657 54.8605 33.166 53.7028 33.3286ZM34.9636 33.8008C32.6678 34.152 30.7928 34.5223 29.7469 34.8313C27.8274 35.3982 27.2417 37.648 28.6638 38.9931C29.5 39.7842 30.0809 39.8666 31.8983 39.4515C32.7088 39.2663 34.5311 38.9472 35.9479 38.7425C37.3646 38.5378 38.6721 38.2913 38.8534 38.1949C39.4216 37.8925 40.0171 36.9647 40.0974 36.2571C40.1975 35.3741 39.8493 34.5774 39.1223 34.0261C38.3713 33.4564 37.5179 33.4102 34.9636 33.8008ZM79.9598 35.9843C77.4062 36.8387 74.791 37.6998 74.1482 37.8981C73.2103 38.1872 72.8881 38.372 72.5168 38.8336C71.6191 39.95 71.8142 41.4727 72.9668 42.3462C74.0415 43.1607 74.6455 43.0531 81.0527 40.9085C86.387 39.1227 86.6513 39.0158 87.0909 38.4658C88.344 36.8977 87.3452 34.6202 85.3438 34.4821C84.7398 34.4405 83.7446 34.7181 79.9598 35.9843ZM1.96498 39.0162C0.916603 39.4925 0.323871 40.6814 0.546579 41.8615C0.677685 42.5562 1.44103 43.4328 2.09876 43.6443C2.37577 43.7332 4.33764 43.9853 6.45848 44.2043C11.0088 44.6743 13.6435 45.09 15.542 45.6374C17.5266 46.2098 18.3921 46.0271 19.276 44.8499C19.7311 44.2439 19.7311 42.7592 19.276 42.1532C18.7205 41.4132 18.2421 41.1726 16.3741 40.6937C13.9413 40.0699 12.2733 39.7999 8.05285 39.3465C2.80985 38.783 2.51364 38.7671 1.96498 39.0162ZM44.9541 43.5053C43.03 43.9908 40.3196 45.2011 39.6375 45.8794C38.639 46.8723 38.6382 48.1482 39.6351 49.3832C40.892 50.9407 41.3233 51.3113 42.0045 51.4196C42.6337 51.5197 42.6583 51.5451 42.6583 52.099C42.6583 52.892 41.922 54.0069 41.145 54.3903C40.1954 54.8589 38.0445 54.7916 36.5797 54.2476C34.5582 53.4966 33.2537 53.7885 32.5965 55.1386C32.2159 55.9204 32.1866 56.4634 32.4872 57.1621C32.8437 57.9908 33.5422 58.5034 34.9753 58.9881C38.3886 60.1425 41.6046 59.9768 43.9653 58.5247L44.7212 58.0595L45.5392 58.6723C46.9251 59.7104 47.824 59.9892 49.8195 59.9997C51.8154 60.0101 52.7256 59.7884 54.7311 58.8036C56.1714 58.0962 58.3065 56.4951 58.8849 55.6887C59.3935 54.9797 59.4182 53.5929 58.9337 52.9427C58.3755 52.1937 57.6445 51.7966 56.8234 51.7966C56.0357 51.7966 55.9143 51.8628 54.1585 53.2511C52.902 54.2446 51.3881 54.9357 50.2421 55.039C49.0191 55.1494 48.4384 54.8536 48.1078 53.9519C47.7831 53.0665 47.7744 52.9715 47.9143 51.8609C48.0316 50.9319 48.0517 50.8995 48.7129 50.5802C50.242 49.8415 51.2738 48.4975 51.4241 47.049C51.4964 46.3532 51.4411 46.0447 51.119 45.3449C50.2517 43.4612 47.9049 42.7609 44.9541 43.5053ZM76.9176 46.5003C74.9109 46.6624 74.33 46.8698 73.7442 47.6334C72.8854 48.7531 73.0926 50.2514 74.2253 51.1108C74.7362 51.4985 74.943 51.557 75.6979 51.5274C76.1807 51.5085 79.0902 51.4668 82.1633 51.4348C88.3382 51.3703 88.3903 51.3623 89.1154 50.3512C89.6099 49.6618 89.6315 48.2626 89.1574 47.6311C88.4968 46.7512 88.1038 46.5851 86.3779 46.4568C84.2802 46.3006 79.0928 46.3244 76.9176 46.5003ZM15.1936 49.2171C5.98584 51.3423 2.63814 52.2758 1.94452 52.9116C0.782034 53.9771 0.858999 55.7731 2.10758 56.7201C2.97606 57.3789 3.59681 57.3823 5.71969 56.7408C8.12036 56.0152 10.2903 55.4751 15.4733 54.313C17.7914 53.7934 19.8247 53.2954 19.9919 53.2063C20.5371 52.9163 21.1317 51.9772 21.2105 51.2822C21.369 49.884 20.3372 48.6609 18.9251 48.5731C18.4584 48.544 17.0768 48.7825 15.1936 49.2171Z" fill="black"/>
</svg>
