<svg width="47" height="34" viewBox="0 0 47 34" fill="none" xmlns="http://www.w3.org/2000/svg">
<path fill-rule="evenodd" clip-rule="evenodd" d="M0.0607796 2.74276C0.0607796 3.36412 0.334354 3.96004 0.821323 4.39941C1.30829 4.83878 1.96877 5.08562 2.65744 5.08562H44.2041C44.8928 5.08562 45.5533 4.83878 46.0402 4.39941C46.5272 3.96004 46.8008 3.36412 46.8008 2.74276C46.8008 2.1214 46.5272 1.52548 46.0402 1.08611C45.5533 0.646738 44.8928 0.399902 44.2041 0.399902H2.65744C1.96877 0.399902 1.30829 0.646738 0.821323 1.08611C0.334354 1.52548 0.0607796 2.1214 0.0607796 2.74276ZM0.0607796 16.7999C0.0607796 17.4213 0.334354 18.0172 0.821323 18.4566C1.30829 18.8959 1.96877 19.1428 2.65744 19.1428H44.2041C44.8928 19.1428 45.5533 18.8959 46.0402 18.4566C46.5272 18.0172 46.8008 17.4213 46.8008 16.7999C46.8008 16.1785 46.5272 15.5826 46.0402 15.1433C45.5533 14.7039 44.8928 14.457 44.2041 14.457H2.65744C1.96877 14.457 1.30829 14.7039 0.821323 15.1433C0.334354 15.5826 0.0607796 16.1785 0.0607796 16.7999ZM2.65744 33.1999C1.96877 33.1999 1.30829 32.9531 0.821323 32.5137C0.334354 32.0743 0.0607796 31.4784 0.0607796 30.857C0.0607796 30.2357 0.334354 29.6398 0.821323 29.2004C1.30829 28.761 1.96877 28.5142 2.65744 28.5142H44.2041C44.8928 28.5142 45.5533 28.761 46.0402 29.2004C46.5272 29.6398 46.8008 30.2357 46.8008 30.857C46.8008 31.4784 46.5272 32.0743 46.0402 32.5137C45.5533 32.9531 44.8928 33.1999 44.2041 33.1999H2.65744Z" fill="black"/>
</svg>
