<svg width="18" height="18" viewBox="0 0 18 18" fill="none" xmlns="http://www.w3.org/2000/svg">
<g clip-path="url(#clip0_283_5750)">
<path d="M5.625 7.03126C5.625 7.25504 5.53611 7.46965 5.37787 7.62789C5.21964 7.78612 5.00503 7.87501 4.78125 7.87501C4.55747 7.87501 4.34286 7.78612 4.18463 7.62789C4.02639 7.46965 3.9375 7.25504 3.9375 7.03126C3.9375 6.80749 4.02639 6.59288 4.18463 6.43464C4.34286 6.27641 4.55747 6.18751 4.78125 6.18751C5.00503 6.18751 5.21964 6.27641 5.37787 6.43464C5.53611 6.59288 5.625 6.80749 5.625 7.03126ZM6.90525 5.34826C7.57326 5.15738 8.26475 5.06119 8.9595 5.06251C9.70875 5.06251 10.4254 5.17164 11.0891 5.36964C11.231 5.40876 11.3825 5.39075 11.5112 5.31946C11.6399 5.24818 11.7356 5.12929 11.7777 4.9883C11.8198 4.84731 11.8049 4.69543 11.7364 4.56525C11.6678 4.43506 11.551 4.33693 11.4109 4.29189C10.6153 4.05541 9.78949 3.93603 8.9595 3.93751C8.13375 3.93751 7.33838 4.05339 6.59475 4.26601C6.45123 4.30719 6.32995 4.40369 6.25759 4.53428C6.18522 4.66488 6.1677 4.81887 6.20888 4.96239C6.25005 5.1059 6.34655 5.22718 6.47715 5.29955C6.60774 5.37192 6.76173 5.38944 6.90525 5.34826Z" fill="black"/>
<path fill-rule="evenodd" clip-rule="evenodd" d="M8.95994 1.71777C5.61081 1.71777 2.69256 3.63477 1.84994 6.3584H1.23119C1.06717 6.35858 0.905183 6.39462 0.756564 6.46399C0.607945 6.53337 0.476292 6.6344 0.37083 6.76001C0.265368 6.88563 0.188647 7.03278 0.146041 7.19116C0.103436 7.34955 0.0959775 7.51533 0.124188 7.6769L0.409938 9.3194C0.478035 9.71097 0.682159 10.0659 0.98634 10.3218C1.29052 10.5776 1.67524 10.7178 2.07269 10.7178H2.36856C2.70606 11.2949 3.14256 11.818 3.65669 12.2725L2.83656 15.0591C2.8119 15.1431 2.80714 15.2315 2.82266 15.3176C2.83819 15.4037 2.87356 15.4849 2.92598 15.5549C2.9784 15.6249 3.04642 15.6818 3.12463 15.7209C3.20285 15.76 3.28911 15.7803 3.37656 15.7803H5.62656C5.74263 15.7803 5.85585 15.7444 5.95072 15.6775C6.04558 15.6107 6.11744 15.5161 6.15644 15.4068L6.69869 13.8869C7.41306 14.0815 8.17244 14.1873 8.96106 14.1873C9.75644 14.1873 10.5226 14.0804 11.2426 13.8813L11.8534 15.4248C11.8949 15.5296 11.967 15.6196 12.0603 15.683C12.1536 15.7464 12.2638 15.7803 12.3766 15.7803H14.6266C14.7143 15.7802 14.8009 15.7596 14.8792 15.72C14.9576 15.6805 15.0257 15.6232 15.0779 15.5527C15.1302 15.4822 15.1652 15.4004 15.1802 15.3139C15.1952 15.2274 15.1898 15.1386 15.1643 15.0546L14.3082 12.2354C15.5367 11.1318 16.3129 9.62877 16.3129 7.95252C16.3129 7.78902 16.3054 7.6274 16.2904 7.46765C16.5841 7.3439 16.8619 7.1684 17.0836 6.96815C17.4379 7.3124 18.0004 7.3124 18.0004 6.49902C18.0004 6.7499 17.4379 6.7499 17.4818 6.46977C17.5284 6.37917 17.5625 6.28267 17.5831 6.1829C17.6095 6.0526 17.6026 5.91772 17.5628 5.79084C17.5231 5.66396 17.4519 5.54921 17.3558 5.45727C17.2545 5.35285 17.1212 5.28529 16.9771 5.26531C16.833 5.24534 16.6863 5.2741 16.5604 5.34702C16.445 5.41135 16.3465 5.50225 16.2731 5.61219C16.1998 5.72214 16.1536 5.84797 16.1386 5.97927C16.1116 6.25265 16.2308 6.51927 16.4986 6.71502C16.4059 6.77963 16.3085 6.83717 16.2072 6.88715C15.6064 3.89015 12.5127 1.71777 8.95994 1.71777ZM2.83094 7.0424C3.34281 4.71815 5.83131 2.84277 8.95994 2.84277C12.4992 2.84277 15.1879 5.22102 15.1879 7.95252C15.1879 9.36327 14.4859 10.6638 13.3092 11.6065C13.2217 11.6769 13.1573 11.7718 13.1242 11.879C13.0912 11.9863 13.0909 12.101 13.1236 12.2084L13.8661 14.6553H12.7579L12.0942 12.9824C12.0407 12.8476 11.9373 12.7386 11.8055 12.6783C11.6736 12.6179 11.5235 12.6108 11.3866 12.6584C10.6429 12.9172 9.82281 13.0623 8.95994 13.0623C8.13423 13.0635 7.31411 12.927 6.53331 12.6584C6.3932 12.6097 6.23952 12.6183 6.10573 12.6824C5.97194 12.7464 5.86886 12.8607 5.81894 13.0004L5.22831 14.6553H4.12694L4.83906 12.2365C4.87084 12.1287 4.8696 12.0139 4.83551 11.9068C4.80143 11.7998 4.73605 11.7054 4.64781 11.6358C4.04593 11.1699 3.55296 10.5782 3.20331 9.90215C3.15648 9.80921 3.08479 9.73109 2.99621 9.67647C2.90763 9.62186 2.80563 9.59288 2.70156 9.59277H2.07156C1.93926 9.59263 1.81125 9.54585 1.71002 9.46067C1.60878 9.37549 1.54082 9.25735 1.51806 9.12702L1.23231 7.48452H2.28194C2.41013 7.48442 2.53444 7.44053 2.63428 7.36012C2.73412 7.27972 2.8035 7.16762 2.83094 7.0424ZM17.0296 6.07827C17.0085 6.16344 16.9711 6.24369 16.9193 6.31452L16.8698 6.2864C16.7056 6.18515 16.6932 6.08952 16.6988 6.03552C16.7047 5.99526 16.7196 5.95685 16.7423 5.92314C16.7651 5.88944 16.7953 5.86133 16.8304 5.8409C16.8856 5.81052 16.9204 5.81727 16.9576 5.8544C16.989 5.88144 17.0124 5.91667 17.0251 5.95618C17.0378 5.99569 17.0394 6.03795 17.0296 6.07827Z" fill="black"/>
</g>
<defs>
<clipPath id="clip0_283_5750">
<rect width="18" height="18" fill="white"/>
</clipPath>
</defs>
</svg>
