<svg width="29" height="30" viewBox="0 0 29 30" fill="none" xmlns="http://www.w3.org/2000/svg">
<path d="M22.3305 22.6421H5.66945H5.66757L5.66833 22.6421L5.66943 22.6421L5.66461 22.642C5.6583 22.6418 5.64673 22.6413 5.63068 22.6401C5.5984 22.6378 5.54902 22.6329 5.48845 22.6229C5.36495 22.6023 5.20792 22.562 5.05694 22.4865C4.90792 22.412 4.77411 22.3081 4.67644 22.1616C4.58086 22.0182 4.5 21.8046 4.5 21.4754C4.5 20.7705 4.86694 19.2323 6.22855 17.8706C7.57552 16.5237 9.93878 15.3088 14 15.3088C18.0612 15.3088 20.4245 16.5237 21.7714 17.8706C23.1331 19.2323 23.5 20.7705 23.5 21.4754C23.5 21.8046 23.4191 22.0182 23.3236 22.1616C23.2259 22.3081 23.0921 22.412 22.9431 22.4865C22.7921 22.562 22.6351 22.6023 22.5116 22.6229C22.451 22.6329 22.4016 22.6378 22.3693 22.6401C22.3651 22.6404 22.3611 22.6407 22.3575 22.6409C22.3475 22.6415 22.34 22.6418 22.3354 22.642L22.3306 22.6421M22.3305 22.6421L22.3301 22.6421C22.3299 22.6421 22.33 22.6421 22.3306 22.6421M22.3305 22.6421H22.3324L22.3317 22.6421L22.3306 22.6421M22.3305 22.6421L22.3306 22.6421M22.3333 21.9688H22.8354L22.8333 21.4667C22.8311 20.9291 22.5265 19.5681 21.3002 18.3419C20.1023 17.144 17.9207 15.9754 14 15.9754C10.0793 15.9754 7.89766 17.144 6.69978 18.3419C5.47285 19.5688 5.17103 20.9295 5.16668 21.4647L5.16259 21.9688H5.66667H22.3333ZM17.182 11.3241C16.3381 12.168 15.1935 12.6421 14 12.6421C12.8065 12.6421 11.6619 12.168 10.818 11.3241C9.97411 10.4802 9.5 9.33556 9.5 8.14209C9.5 6.94862 9.97411 5.80402 10.818 4.96011C11.6619 4.1162 12.8065 3.64209 14 3.64209C15.1935 3.64209 16.3381 4.1162 17.182 4.96011C18.0259 5.80402 18.5 6.94862 18.5 8.14209C18.5 9.33556 18.0259 10.4802 17.182 11.3241ZM16.7106 10.8527C17.4295 10.1338 17.8333 9.15875 17.8333 8.14209C17.8333 7.12543 17.4295 6.1504 16.7106 5.43151C15.9917 4.71262 15.0167 4.30876 14 4.30876C12.9833 4.30876 12.0083 4.71262 11.2894 5.43151C10.5705 6.1504 10.1667 7.12543 10.1667 8.14209C10.1667 9.15875 10.5705 10.1338 11.2894 10.8527C12.0083 11.5716 12.9833 11.9754 14 11.9754C15.0167 11.9754 15.9917 11.5716 16.7106 10.8527Z" fill="white" fill-opacity="0.5" stroke="black"/>
</svg>
