<svg width="62" height="41" viewBox="0 0 62 41" fill="none" xmlns="http://www.w3.org/2000/svg">
<path d="M61.9995 34.1339C61.9995 34.8945 61.3823 35.5117 60.6217 35.5117H37.9676C37.2071 35.5117 36.5898 34.8945 36.5898 34.1339C36.5898 33.3734 37.2071 32.7562 37.9676 32.7562H60.6217C61.3823 32.7562 61.9995 33.3727 61.9995 34.1339Z" fill="black"/>
<path d="M40.8904 6.82681C40.8904 7.58735 40.2731 8.20459 39.5126 8.20459L1.37778 8.20459C0.617244 8.20459 0 7.58735 0 6.82681C0 6.06628 0.617244 5.44903 1.37778 5.44903L39.5126 5.44903C40.2738 5.44903 40.8904 6.06628 40.8904 6.82681Z" fill="black"/>
<path d="M62 20.4804C62 21.2409 61.3828 21.8582 60.6223 21.8582L19.2352 21.8582C18.4747 21.8582 17.8574 21.2409 17.8574 20.4804C17.8574 19.7198 18.4747 19.1026 19.2352 19.1026L60.6223 19.1026C61.3828 19.1026 62 19.7198 62 20.4804Z" fill="black"/>
<path d="M20.6128 20.4798C20.6128 24.2438 17.5506 27.3066 13.7859 27.3066C10.0211 27.3066 6.95898 24.2445 6.95898 20.4798C6.95898 16.715 10.0211 13.6529 13.7859 13.6529C17.5506 13.6529 20.6128 16.715 20.6128 20.4798ZM9.71523 20.4798C9.71523 22.7248 11.5415 24.5511 13.7866 24.5511C16.0317 24.5511 17.8579 22.7248 17.8579 20.4798C17.8579 18.2347 16.0317 16.4084 13.7866 16.4084C11.5415 16.4084 9.71523 18.2347 9.71523 20.4798Z" fill="black"/>
<path d="M39.3452 34.1338C39.3452 37.8979 36.2831 40.9607 32.5183 40.9607C28.7542 40.9607 25.6914 37.8986 25.6914 34.1338C25.6914 30.369 28.7535 27.3069 32.5183 27.3069C36.2831 27.3069 39.3452 30.3697 39.3452 34.1338ZM28.447 34.1338C28.447 36.3789 30.2732 38.2051 32.5183 38.2051C34.7634 38.2051 36.5896 36.3789 36.5896 34.1338C36.5896 31.8887 34.7634 30.0625 32.5183 30.0625C30.2732 30.0625 28.447 31.8887 28.447 34.1338Z" fill="black"/>
<path d="M51.7879 6.82688C51.7879 10.591 48.7257 13.6531 44.961 13.6531C41.1969 13.6531 38.1348 10.591 38.1348 6.82688C38.1348 3.0621 41.1969 -1.04904e-05 44.961 -1.04904e-05C48.7251 -1.04904e-05 51.7879 3.0621 51.7879 6.82688ZM40.8896 6.82688C40.8896 9.07197 42.7152 10.8975 44.9603 10.8975C47.2054 10.8975 49.0316 9.07197 49.0316 6.82688C49.0316 4.58179 47.2054 2.75554 44.9603 2.75554C42.7152 2.75554 40.8896 4.58179 40.8896 6.82688Z" fill="black"/>
<path d="M28.4477 34.1339C28.4477 34.8945 27.8304 35.5117 27.0699 35.5117L1.37778 35.5117C0.617244 35.5117 0 34.8945 0 34.1339C0 33.3734 0.617244 32.7562 1.37778 32.7562H27.0699C27.8311 32.7562 28.4477 33.3727 28.4477 34.1339Z" fill="black"/>
<path d="M9.7154 20.4804C9.7154 21.2409 9.09815 21.8582 8.33762 21.8582H1.37778C0.617244 21.8582 0 21.2409 0 20.4804C0 19.7198 0.617244 19.1026 1.37778 19.1026H8.33762C9.09815 19.1026 9.7154 19.7198 9.7154 20.4804Z" fill="black"/>
<path d="M62.0002 6.82681C62.0002 7.58735 61.3829 8.20459 60.6224 8.20459L50.411 8.20459C49.6504 8.20459 49.0332 7.58735 49.0332 6.82681C49.0332 6.06628 49.6504 5.44903 50.411 5.44903L60.6224 5.44903C61.3829 5.44903 62.0002 6.06628 62.0002 6.82681Z" fill="black"/>
</svg>
