<svg width="44" height="46" viewBox="0 0 44 46" fill="none" xmlns="http://www.w3.org/2000/svg">
<path d="M44 17.8948C43.9966 17.7419 43.9491 17.5935 43.8634 17.4681L39.3117 10.9897C39.2412 10.8883 39.1478 10.8058 39.0396 10.7491C38.9313 10.6924 38.8113 10.6631 38.6897 10.6638H30.451V2.99052C30.451 2.32999 30.1945 1.69652 29.7378 1.22946C29.2811 0.762393 28.6617 0.5 28.0159 0.5H15.9841C15.3383 0.5 14.7189 0.762393 14.2622 1.22946C13.8055 1.69652 13.549 2.32999 13.549 2.99052V10.6638H5.31034C5.18999 10.6644 5.07149 10.6942 4.96465 10.7509C4.8578 10.8075 4.76567 10.8894 4.69586 10.9897L0.144138 17.4681C0.0547873 17.6008 0.00474272 17.7571 0 17.9181V22.5733C0.00254237 23.1348 0.2075 23.6756 0.575632 24.0922C0.943764 24.5088 1.4492 24.7718 1.99517 24.831V44.7241C1.99517 44.9299 2.0751 45.1273 2.21737 45.2728C2.35964 45.4183 2.55259 45.5 2.75379 45.5H41.2462C41.4474 45.5 41.6404 45.4183 41.7826 45.2728C41.9249 45.1273 42.0048 44.9299 42.0048 44.7241V24.831C42.5508 24.7718 43.0562 24.5088 43.4244 24.0922C43.7925 23.6756 43.9975 23.1348 44 22.5733C44 22.5345 44 17.9259 44 17.8948ZM17.3724 5.29483C17.5979 5.24841 17.831 5.25876 18.0517 5.32499C18.2724 5.39122 18.4741 5.51134 18.6393 5.675C18.2069 3.23879 20.8697 1.54741 22 4.0069C23.1303 1.54741 25.7931 3.23103 25.3607 5.675C26.6959 4.48793 28.2055 6.03966 27.7428 7.81638C27.5228 9.00345 26.4607 10.0819 25.3455 9.46897C25.723 9.73143 26.0088 10.1101 26.1615 10.55C26.3143 10.9899 26.3259 11.4681 26.1949 11.9153C26.0638 12.3624 25.7968 12.7552 25.4326 13.0366C25.0684 13.318 24.626 13.4734 24.1697 13.4802C23.411 13.4802 22.7738 13.0612 22 13.0845C21.2262 13.1078 20.6269 13.4802 19.8607 13.4802C19.4017 13.4799 18.9549 13.3292 18.5858 13.0502C18.2167 12.7712 17.9448 12.3786 17.8099 11.9299C17.675 11.4813 17.6842 11.0002 17.8362 10.5573C17.9882 10.1144 18.275 9.73296 18.6545 9.46897C16.3103 10.5862 15.1724 5.76035 17.3724 5.29483ZM5.69724 12.2155H13.549V13.294C13.549 13.9545 13.8055 14.588 14.2622 15.055C14.7189 15.5221 15.3383 15.7845 15.9841 15.7845H28.0159C28.6617 15.7845 29.2811 15.5221 29.7378 15.055C30.1945 14.588 30.451 13.9545 30.451 13.294V12.2155H38.3028L41.7621 17.1422H2.27586L5.69724 12.2155ZM33.0455 22.5733C33.0347 22.7631 32.9561 22.9422 32.8246 23.0767C32.6932 23.2111 32.518 23.2915 32.3324 23.3026H30.5497C30.3605 23.3026 30.1791 23.2257 30.0454 23.089C29.9117 22.9522 29.8366 22.7667 29.8366 22.5733V18.694H33.0455V22.5733ZM23.6007 22.5733C23.6007 22.7667 23.5256 22.9522 23.3918 23.089C23.2581 23.2257 23.0767 23.3026 22.8876 23.3026H21.1124C20.9233 23.3026 20.7419 23.2257 20.6082 23.089C20.4744 22.9522 20.3993 22.7667 20.3993 22.5733V18.694H23.6007V22.5733ZM14.1634 22.5733C14.1634 22.7667 14.0883 22.9522 13.9546 23.089C13.8209 23.2257 13.6395 23.3026 13.4503 23.3026H11.6676C11.4785 23.3026 11.2971 23.2257 11.1633 23.089C11.0296 22.9522 10.9545 22.7667 10.9545 22.5733V18.694H14.1634V22.5733ZM1.51724 22.5733V18.694H4.71862V22.5733C4.71862 22.7667 4.64349 22.9522 4.50976 23.089C4.37602 23.2257 4.19464 23.3026 4.00552 23.3026H2.23034C2.04122 23.3026 1.85984 23.2257 1.7261 23.089C1.59237 22.9522 1.51724 22.7667 1.51724 22.5733ZM25.8462 43.9483V27.2595H36.4138V43.9483H25.8462ZM37.931 43.9483V26.4836C37.931 26.2779 37.8511 26.0805 37.7088 25.935C37.5666 25.7895 37.3736 25.7078 37.1724 25.7078H25.0876C24.8864 25.7078 24.6934 25.7895 24.5512 25.935C24.4089 26.0805 24.329 26.2779 24.329 26.4836V43.9483H3.51241V24.8543C3.86142 24.8999 4.21587 24.8718 4.55383 24.7718C4.89179 24.6717 5.20608 24.5017 5.47724 24.2724C6.18276 25.0483 7.7531 24.8233 8.73172 24.8543C9.27329 24.8519 9.79484 24.6447 10.1959 24.2724C10.9014 25.0483 12.4717 24.8233 13.4503 24.8543C13.994 24.8509 14.5176 24.6439 14.9221 24.2724C15.62 25.0483 17.1979 24.8233 18.169 24.8543C18.7129 24.8524 19.237 24.6452 19.6407 24.2724C20.3386 25.0483 21.9545 24.8233 22.8876 24.8543C23.4315 24.8524 23.9556 24.6452 24.3593 24.2724C25.0572 25.0483 26.6352 24.8233 27.6062 24.8543C28.1501 24.8524 28.6742 24.6452 29.0779 24.2724C29.7834 25.0483 31.3917 24.8233 32.3324 24.8543C32.8761 24.8509 33.3997 24.6439 33.8041 24.2724C34.5021 25.0483 36.08 24.8233 37.051 24.8543C37.5949 24.8524 38.119 24.6452 38.5228 24.2724C38.7939 24.5017 39.1082 24.6717 39.4462 24.7718C39.7841 24.8718 40.1386 24.8999 40.4876 24.8543V43.9483H37.931ZM42.4828 22.5733C42.4828 22.7667 42.4076 22.9522 42.2739 23.089C42.1402 23.2257 41.9588 23.3026 41.7697 23.3026H39.9945C39.8054 23.3026 39.624 23.2257 39.4902 23.089C39.3565 22.9522 39.2814 22.7667 39.2814 22.5733V18.694H42.4828V22.5733Z" fill="black"/>
</svg>
