<svg width="56" height="55" viewBox="0 0 56 55" fill="none" xmlns="http://www.w3.org/2000/svg">
<path d="M24.1847 0.018671C15.7907 0.358854 11.0099 1.53836 7.48491 4.13898C6.62467 4.77361 5.32662 6.06592 4.68322 6.92836C1.57406 11.096 0.339486 17.6649 0.516543 29.0993C0.58586 33.5797 0.763932 36.08 1.20894 38.8256C1.84134 42.7265 2.96149 45.7114 4.65597 48.0109C5.29023 48.8717 6.58176 50.1705 7.44369 50.8143C11.6088 53.9253 18.1738 55.1606 29.6014 54.9835C34.0791 54.9141 36.578 54.7359 39.3219 54.2906C44.1799 53.5021 47.5183 52.0106 50.0058 49.5173C53.4951 46.0196 55.0362 40.9866 55.4146 31.8516C55.6319 26.6066 55.4252 20.6122 54.9007 16.9469C54.017 10.7716 52.0364 6.80167 48.5268 4.17124C45.3713 1.80631 41.1729 0.621888 34.214 0.133335C32.9667 0.0458549 25.5951 -0.038492 24.1847 0.018671ZM34.2563 4.36755C39.124 4.74999 42.1589 5.42121 44.5323 6.64026C48.2671 8.55865 50.1379 12.157 50.8811 18.8523C51.1629 21.3917 51.2224 22.906 51.2222 27.5326C51.2219 33.1001 51.0821 35.3593 50.5436 38.4994C49.2993 45.755 46.2537 48.8007 38.9894 50.0541C35.8735 50.5917 33.5707 50.7333 27.951 50.733C22.3868 50.7327 20.129 50.5928 16.9907 50.054C9.73951 48.809 6.6956 45.7616 5.443 38.4929C4.90565 35.3751 4.76414 33.071 4.76447 27.4479C4.76473 21.8804 4.90455 19.6213 5.44308 16.4811C6.6873 9.22555 9.73291 6.17982 16.9972 4.92647C18.943 4.59069 20.7855 4.41488 24.0578 4.25246C25.2729 4.19216 33.156 4.28108 34.2563 4.36755ZM25.391 13.4336C23.8514 13.5931 22.2717 14.0485 20.9334 14.719C15.3157 17.5332 12.6065 23.9439 14.4984 29.9462C15.6818 33.7006 18.7528 36.8283 22.5162 38.1122C23.9252 38.5928 24.6733 38.7031 26.5545 38.7072C28.0708 38.7106 28.4002 38.6863 29.1681 38.5143C30.3519 38.2491 31.3235 37.8976 32.4214 37.3372L33.3371 36.8699L35.4682 38.9825C37.7112 41.206 37.9454 41.3844 38.836 41.5492C40.3685 41.8327 41.8787 40.6694 42.0806 39.0499C42.1419 38.5586 41.9641 37.7804 41.6852 37.3187C41.5851 37.153 40.5726 36.0768 39.4352 34.9273L37.3674 32.8372L37.8345 31.9209C38.3944 30.8224 38.7457 29.8502 39.0108 28.6658C39.1808 27.906 39.2075 27.5568 39.2075 26.0929C39.2075 24.2329 39.1216 23.6309 38.6455 22.1551C37.4211 18.3593 34.3461 15.272 30.5523 14.0294C28.9278 13.4972 26.9648 13.2707 25.391 13.4336ZM28.2844 19.2293C28.9749 19.4179 29.6842 19.7125 30.2598 20.05C30.9831 20.4741 32.2794 21.8134 32.707 22.5785C33.6742 24.309 33.8891 26.2776 33.3142 28.1423C32.136 31.9641 28.0706 34.0387 24.2923 32.7464C22.0888 31.9927 20.3409 30.092 19.7316 27.7867C19.4967 26.8982 19.5139 25.1324 19.7661 24.2481C20.5055 21.6547 22.5177 19.7485 25.1157 19.18C25.9797 18.991 27.4979 19.0146 28.2844 19.2293Z" fill="#F291A3" fill-opacity="0.84"/>
<path d="M24.1847 0.018671C15.7907 0.358854 11.0099 1.53836 7.48491 4.13898C6.62467 4.77361 5.32662 6.06592 4.68322 6.92836C1.57406 11.096 0.339486 17.6649 0.516543 29.0993C0.58586 33.5797 0.763932 36.08 1.20894 38.8256C1.84134 42.7265 2.96149 45.7114 4.65597 48.0109C5.29023 48.8717 6.58176 50.1705 7.44369 50.8143C11.6088 53.9253 18.1738 55.1606 29.6014 54.9835C34.0791 54.9141 36.578 54.7359 39.3219 54.2906C44.1799 53.5021 47.5183 52.0106 50.0058 49.5173C53.4951 46.0196 55.0362 40.9866 55.4146 31.8516C55.6319 26.6066 55.4252 20.6122 54.9007 16.9469C54.017 10.7716 52.0364 6.80167 48.5268 4.17124C45.3713 1.80631 41.1729 0.621888 34.214 0.133335C32.9667 0.0458549 25.5951 -0.038492 24.1847 0.018671ZM34.2563 4.36755C39.124 4.74999 42.1589 5.42121 44.5323 6.64026C48.2671 8.55865 50.1379 12.157 50.8811 18.8523C51.1629 21.3917 51.2224 22.906 51.2222 27.5326C51.2219 33.1001 51.0821 35.3593 50.5436 38.4994C49.2993 45.755 46.2537 48.8007 38.9894 50.0541C35.8735 50.5917 33.5707 50.7333 27.951 50.733C22.3868 50.7327 20.129 50.5928 16.9907 50.054C9.73951 48.809 6.6956 45.7616 5.443 38.4929C4.90565 35.3751 4.76414 33.071 4.76447 27.4479C4.76473 21.8804 4.90455 19.6213 5.44308 16.4811C6.6873 9.22555 9.73291 6.17982 16.9972 4.92647C18.943 4.59069 20.7855 4.41488 24.0578 4.25246C25.2729 4.19216 33.156 4.28108 34.2563 4.36755ZM25.391 13.4336C23.8514 13.5931 22.2717 14.0485 20.9334 14.719C15.3157 17.5332 12.6065 23.9439 14.4984 29.9462C15.6818 33.7006 18.7528 36.8283 22.5162 38.1122C23.9252 38.5928 24.6733 38.7031 26.5545 38.7072C28.0708 38.7106 28.4002 38.6863 29.1681 38.5143C30.3519 38.2491 31.3235 37.8976 32.4214 37.3372L33.3371 36.8699L35.4682 38.9825C37.7112 41.206 37.9454 41.3844 38.836 41.5492C40.3685 41.8327 41.8787 40.6694 42.0806 39.0499C42.1419 38.5586 41.9641 37.7804 41.6852 37.3187C41.5851 37.153 40.5726 36.0768 39.4352 34.9273L37.3674 32.8372L37.8345 31.9209C38.3944 30.8224 38.7457 29.8502 39.0108 28.6658C39.1808 27.906 39.2075 27.5568 39.2075 26.0929C39.2075 24.2329 39.1216 23.6309 38.6455 22.1551C37.4211 18.3593 34.3461 15.272 30.5523 14.0294C28.9278 13.4972 26.9648 13.2707 25.391 13.4336ZM28.2844 19.2293C28.9749 19.4179 29.6842 19.7125 30.2598 20.05C30.9831 20.4741 32.2794 21.8134 32.707 22.5785C33.6742 24.309 33.8891 26.2776 33.3142 28.1423C32.136 31.9641 28.0706 34.0387 24.2923 32.7464C22.0888 31.9927 20.3409 30.092 19.7316 27.7867C19.4967 26.8982 19.5139 25.1324 19.7661 24.2481C20.5055 21.6547 22.5177 19.7485 25.1157 19.18C25.9797 18.991 27.4979 19.0146 28.2844 19.2293Z" stroke="black"/>
</svg>
