<svg width="55" height="55" viewBox="0 0 55 55" fill="none" xmlns="http://www.w3.org/2000/svg">
<path fill-rule="evenodd" clip-rule="evenodd" d="M23.6847 0.018671C15.2907 0.358854 10.5099 1.53836 6.98491 4.13898C6.12467 4.77361 4.82662 6.06592 4.18322 6.92836C1.07406 11.096 -0.160514 17.6649 0.0165434 29.0993C0.0858597 33.5797 0.263932 36.08 0.708945 38.8256C1.34134 42.7265 2.46149 45.7114 4.15597 48.0109C4.79023 48.8717 6.08176 50.1705 6.94369 50.8143C11.1088 53.9253 17.6738 55.1606 29.1014 54.9835C33.5791 54.9141 36.078 54.7359 38.8219 54.2906C43.6799 53.5021 47.0183 52.0106 49.5058 49.5173C52.9951 46.0196 54.5362 40.9866 54.9146 31.8516C55.1319 26.6066 54.9252 20.6122 54.4007 16.9469C53.517 10.7716 51.5363 6.80167 48.0268 4.17124C44.8713 1.80631 40.6729 0.621888 33.714 0.133335C32.4667 0.0458549 25.0951 -0.038492 23.6847 0.018671ZM33.7563 4.36755C38.624 4.74999 41.6589 5.42121 44.0323 6.64026C47.7671 8.55865 49.6379 12.157 50.3811 18.8523C50.6629 21.3917 50.7224 22.906 50.7222 27.5326C50.7219 33.1001 50.5821 35.3593 50.0436 38.4994C48.7993 45.755 45.7537 48.8007 38.4894 50.0541C35.3735 50.5917 33.0707 50.7333 27.451 50.733C21.8868 50.7327 19.629 50.5928 16.4907 50.054C9.23951 48.809 6.1956 45.7616 4.943 38.4929C4.40565 35.3751 4.26414 33.071 4.26447 27.4479C4.26473 21.8804 4.40455 19.6213 4.94308 16.4811C6.1873 9.22555 9.23291 6.17982 16.4972 4.92647C18.443 4.59069 20.2855 4.41488 23.5578 4.25246C24.7729 4.19216 32.656 4.28108 33.7563 4.36755ZM24.891 13.4336C23.3514 13.5931 21.7717 14.0485 20.4334 14.719C14.8157 17.5332 12.1065 23.9439 13.9984 29.9462C15.1818 33.7006 18.2527 36.8283 22.0162 38.1122C23.4252 38.5928 24.1733 38.7031 26.0545 38.7072C27.5708 38.7106 27.9002 38.6863 28.6681 38.5143C29.8519 38.2491 30.8235 37.8976 31.9214 37.3372L32.8371 36.8699L34.9682 38.9825C37.2112 41.206 37.4454 41.3844 38.336 41.5492C39.8685 41.8327 41.3787 40.6694 41.5806 39.0499C41.6419 38.5586 41.4641 37.7804 41.1852 37.3187C41.0851 37.153 40.0726 36.0768 38.9352 34.9273L36.8674 32.8372L37.3345 31.9209C37.8944 30.8224 38.2457 29.8502 38.5108 28.6658C38.6808 27.906 38.7075 27.5568 38.7075 26.0929C38.7075 24.2329 38.6216 23.6309 38.1455 22.1551C36.9211 18.3593 33.8461 15.272 30.0523 14.0294C28.4278 13.4972 26.4648 13.2707 24.891 13.4336ZM27.7844 19.2293C28.4749 19.4179 29.1842 19.7125 29.7598 20.05C30.4831 20.4741 31.7794 21.8134 32.207 22.5785C33.1742 24.309 33.3891 26.2776 32.8142 28.1423C31.636 31.9641 27.5706 34.0387 23.7923 32.7464C21.5888 31.9927 19.8409 30.092 19.2316 27.7867C18.9967 26.8982 19.0139 25.1324 19.2661 24.2481C20.0055 21.6547 22.0177 19.7485 24.6157 19.18C25.4797 18.991 26.9979 19.0146 27.7844 19.2293Z" fill="#F291A3" fill-opacity="0.84"/>
</svg>
