<svg width="29" height="30" viewBox="0 0 29 30" fill="none" xmlns="http://www.w3.org/2000/svg">
<path fill-rule="evenodd" clip-rule="evenodd" d="M5.62154 5.48724C6.8717 5.7391 8.17305 6.59722 8.93411 7.67159C9.21136 8.06296 9.25777 8.26928 9.13602 8.56856C9.01616 8.86322 8.74512 9.03397 8.39737 9.03397C8.06196 9.03397 7.87437 8.92262 7.61015 8.56688C7.03007 7.78577 6.23418 7.22399 5.43097 7.02864C4.83991 6.88485 4.33943 6.96438 4.23655 7.21846C4.07357 7.6208 4.37086 8.46477 4.97766 9.32232C5.16018 9.5803 5.17111 9.61606 5.15013 9.888C5.13177 10.1267 5.10105 10.2049 4.9772 10.3286C4.68975 10.6155 4.36486 10.6782 4.00731 10.5157C3.69206 10.3725 3.1445 9.5545 2.81499 8.73464C2.25199 7.33375 2.60929 6.15372 3.74986 5.64739C4.28891 5.40809 4.94853 5.35168 5.62154 5.48724ZM25.3094 6.0663C26.1571 6.28028 26.8301 6.98951 27.0102 7.8588C27.0863 8.22615 27.0475 8.88907 26.928 9.26354C26.6862 10.0212 26.0846 10.8442 25.3231 11.459C24.7403 11.9295 24.4493 12.0742 24.1498 12.0425C23.7336 11.9985 23.4171 11.6734 23.4175 11.2903C23.4177 10.9849 23.5414 10.818 24.0223 10.4744C24.7261 9.97152 25.187 9.40474 25.3383 8.85629C25.6052 7.88807 25.0869 7.29086 24.2804 7.63741C23.9052 7.79868 23.4499 8.20733 23.0385 8.75212C22.8496 9.00229 22.634 9.24448 22.5595 9.29031C22.3433 9.42327 22.0326 9.43448 21.7895 9.31808C21.4758 9.16789 21.3402 8.96036 21.3402 8.63066C21.3402 8.37774 21.3617 8.32907 21.648 7.93313C22.7132 6.4594 24.0887 5.75816 25.3094 6.0663ZM15.1861 8.17618C15.3728 8.25407 15.5457 8.42405 15.6164 8.59942C15.6904 8.78278 15.8288 10.2293 15.8419 10.956C15.8517 11.5054 15.8424 11.5785 15.7471 11.6992C15.5471 11.9522 15.3827 12.0315 15.0579 12.0315C14.7351 12.0315 14.5696 11.9526 14.3724 11.7047C14.2862 11.5963 14.26 11.439 14.2047 10.6967C14.1687 10.2129 14.1125 9.58684 14.0797 9.30533C14.0119 8.72184 14.0489 8.54006 14.277 8.33586C14.5297 8.10956 14.8793 8.04813 15.1861 8.17618ZM18.4427 8.64091C18.7259 8.7524 18.8519 8.93268 19.0458 9.50318C19.2039 9.96868 19.2345 10.1274 19.2359 10.4911C19.2379 11.002 19.1475 11.1954 18.8244 11.3716C18.28 11.6686 17.6221 11.2829 17.6221 10.6667C17.6221 10.5022 17.5607 10.2151 17.4626 9.92035C17.2424 9.25936 17.2915 8.9944 17.6856 8.71823C17.8413 8.60914 18.2547 8.56693 18.4427 8.64091ZM11.9065 8.75091C12.1142 8.83944 12.3283 9.08475 12.3671 9.27885C12.3843 9.36516 12.391 9.78547 12.382 10.2128C12.3672 10.9085 12.3544 11.0038 12.2597 11.1226C12.0586 11.3751 11.8948 11.4539 11.5705 11.4539C11.2462 11.4539 11.0823 11.375 10.8814 11.1224C10.7833 10.9991 10.7756 10.9235 10.7756 10.0819C10.7756 9.0889 10.7865 9.04904 11.1211 8.8145C11.2909 8.69555 11.6989 8.66253 11.9065 8.75091ZM11.6642 15.6661C12.1391 15.7291 12.3164 15.7968 12.4886 15.9809C12.8556 16.3732 12.718 16.9536 12.2036 17.1827C12.032 17.2592 11.9665 17.2613 11.4836 17.2053C11.1107 17.1621 10.7733 17.156 10.3512 17.1847C9.39147 17.2499 9.2373 17.2434 9.0773 17.1313C8.80821 16.9427 8.72425 16.7888 8.72425 16.4844C8.72425 16.0503 8.97042 15.7956 9.46896 15.714C9.87893 15.6468 11.287 15.6161 11.6642 15.6661ZM17.7703 15.8114C18.5184 15.9194 19.1293 16.0333 19.4701 16.1283C20.0956 16.3027 20.2864 16.9947 19.823 17.4084C19.5506 17.6517 19.3613 17.677 18.7691 17.5494C18.505 17.4924 17.9112 17.3943 17.4495 17.3313C16.9879 17.2683 16.5619 17.1925 16.5028 17.1629C16.3177 17.0699 16.1236 16.7845 16.0975 16.5668C16.0649 16.2952 16.1783 16.0502 16.4152 15.8806C16.6599 15.7054 16.938 15.6912 17.7703 15.8114ZM3.1086 16.4829C3.94069 16.7457 4.79283 17.0106 5.00228 17.0716C5.30788 17.1605 5.41286 17.2173 5.53384 17.3593C5.82637 17.7027 5.76278 18.171 5.38722 18.4397C5.03705 18.6902 4.84022 18.6571 2.75248 17.9975C1.01435 17.4482 0.928238 17.4153 0.785002 17.2462C0.376675 16.7639 0.702124 16.0634 1.35426 16.0209C1.55109 16.0081 1.87536 16.0935 3.1086 16.4829ZM28.5226 17.4155C28.8643 17.562 29.0574 17.9276 28.9848 18.2906C28.9421 18.5043 28.6934 18.7739 28.4791 18.839C28.3888 18.8663 27.7495 18.9439 27.0585 19.0112C25.5758 19.1558 24.7173 19.2836 24.0987 19.452C23.452 19.6281 23.17 19.5719 22.882 19.2098C22.7337 19.0234 22.7337 18.5667 22.882 18.3803C23.063 18.1527 23.2189 18.0787 23.8275 17.9314C24.6203 17.7396 25.1638 17.6565 26.539 17.5171C28.2474 17.3438 28.3439 17.3389 28.5226 17.4155ZM14.5149 18.7962C15.1419 18.9455 16.0251 19.3178 16.2473 19.5264C16.5727 19.8318 16.5729 20.2243 16.2481 20.6041C15.8385 21.0831 15.698 21.1971 15.4761 21.2305C15.271 21.2613 15.263 21.2691 15.263 21.4394C15.263 21.6833 15.5029 22.0262 15.7561 22.1442C16.0655 22.2883 16.7664 22.2676 17.2437 22.1003C17.9024 21.8693 18.3274 21.9591 18.5416 22.3743C18.6656 22.6148 18.6751 22.7818 18.5772 22.9967C18.461 23.2516 18.2334 23.4093 17.7665 23.5584C16.6543 23.9134 15.6064 23.8624 14.8372 23.4158L14.5908 23.2727L14.3243 23.4612C13.8727 23.7805 13.5798 23.8663 12.9296 23.8695C12.2792 23.8727 11.9827 23.8045 11.3292 23.5016C10.8599 23.284 10.1642 22.7915 9.9757 22.5435C9.81 22.3255 9.80195 21.8989 9.9598 21.6989C10.1417 21.4685 10.3799 21.3464 10.6474 21.3464C10.9041 21.3464 10.9436 21.3668 11.5158 21.7938C11.9252 22.0994 12.4185 22.3119 12.7919 22.3437C13.1904 22.3777 13.3796 22.2867 13.4874 22.0093C13.5932 21.737 13.596 21.7078 13.5504 21.3662C13.5122 21.0805 13.5056 21.0705 13.2902 20.9723C12.7919 20.7451 12.4557 20.3317 12.4067 19.8862C12.3832 19.6721 12.4012 19.5773 12.5062 19.362C12.7888 18.7826 13.5535 18.5673 14.5149 18.7962ZM4.09988 19.7174C4.75375 19.7673 4.94305 19.8311 5.13393 20.0659C5.41374 20.4103 5.34624 20.8711 4.97715 21.1355C4.81068 21.2547 4.74329 21.2727 4.49733 21.2636C4.33999 21.2578 3.39195 21.245 2.39062 21.2351C0.378571 21.2153 0.361593 21.2128 0.125326 20.9019C-0.0358105 20.6898 -0.0428333 20.2594 0.111635 20.0652C0.326876 19.7946 0.454933 19.7435 1.01732 19.704C1.70084 19.656 3.39112 19.6633 4.09988 19.7174ZM24.2122 20.553C27.2125 21.2067 28.3033 21.4938 28.5293 21.6894C28.9081 22.0171 28.883 22.5695 28.4762 22.8608C28.1932 23.0634 27.9909 23.0645 27.2992 22.8671C26.517 22.644 25.8099 22.4778 24.121 22.1204C23.3657 21.9606 22.7032 21.8074 22.6487 21.78C22.4711 21.6908 22.2773 21.402 22.2516 21.1882C22.2 20.7582 22.5362 20.382 22.9963 20.3549C23.1484 20.346 23.5986 20.4194 24.2122 20.553Z" fill="black"/>
</svg>
