<svg width="58" height="64" viewBox="0 0 58 64" fill="none" xmlns="http://www.w3.org/2000/svg">
<path fill-rule="evenodd" clip-rule="evenodd" d="M27.455 0.0198976C25.2711 0.345415 23.7942 0.775862 17.7064 2.86136C9.31958 5.73431 7.18184 6.52748 5.00749 7.573C3.4591 8.31752 2.68772 8.81935 2.0337 9.5076C0.999985 10.5954 0.599287 11.696 0.297648 14.2767C0.105339 15.9219 -0.0274825 20.5476 0.00485195 24.4745C0.0322737 27.8045 0.0395979 27.9303 0.226012 28.2763C0.631443 29.0286 1.37853 29.4786 2.22798 29.4819C3.16514 29.4856 4.11615 28.7776 4.36125 27.8939C4.41841 27.6878 4.45405 26.0584 4.45468 23.6247C4.45628 17.6538 4.64636 14.1971 5.03822 13.0157C5.15594 12.6607 5.26429 12.5315 5.67142 12.2609C7.07734 11.3263 9.51993 10.3888 19.1034 7.10508C25.9381 4.76321 27.1499 4.43716 29.0181 4.43716C30.9045 4.43716 32.0985 4.76124 39.2561 7.21618C47.7824 10.1406 50.6733 11.2411 52.1243 12.1145C52.7456 12.4886 52.8353 12.5775 52.9758 12.9588C53.432 14.1971 53.5799 17.5224 53.5798 26.5319C53.5797 33.4209 53.5394 34.5406 53.2197 36.5394C52.5785 40.5483 50.9084 44.4806 48.4494 47.7716C47.7938 48.6491 47.6586 48.9466 47.6543 49.5213C47.6494 50.1665 47.8143 50.6273 48.2046 51.0601C48.6714 51.5775 49.1361 51.7877 49.8301 51.7951C50.9636 51.8073 51.4801 51.349 53.0983 48.8951C55.7147 44.9277 57.2143 40.77 57.8411 35.7456C57.9874 34.5731 58.0026 33.6281 57.9997 25.9058C57.9975 19.8962 57.9629 16.9121 57.8832 15.8424C57.5023 10.727 56.7695 9.41975 53.3139 7.69108C51.407 6.73725 48.668 5.71463 40.7801 3.01173C32.8818 0.305341 31.9405 0.0585411 29.3307 0.00996834C28.4465 -0.00658038 27.6024 -0.0020183 27.455 0.0198976ZM28.0069 14.9081C24.9057 15.2691 22.1747 17.5531 21.2215 20.5833C20.1376 24.0289 21.4487 27.7944 24.4393 29.8252C27.7184 32.052 32.2396 31.5717 34.9099 28.7131C36.2188 27.3117 36.9179 25.8114 37.1433 23.9202C37.5409 20.582 35.7113 17.2398 32.6356 15.6863C31.9508 15.3404 30.8454 15.0211 29.956 14.9124C29.072 14.8044 28.9012 14.804 28.0069 14.9081ZM30.3037 19.5588C31.9543 20.1772 32.9937 21.955 32.687 23.6351C32.3966 25.2258 31.1721 26.4407 29.5764 26.7213C28.0635 26.9873 26.4058 26.122 25.709 24.7025C25.1649 23.5937 25.1668 22.489 25.7148 21.3725C26.1915 20.4013 27.228 19.6033 28.3035 19.3795C28.8506 19.2656 29.7325 19.3447 30.3037 19.5588ZM27.321 32.7912C23.6877 33.041 20.4482 34.0282 18.1216 35.5946C17.3051 36.1443 16.1295 37.3292 15.7202 38.0148C15.5542 38.2927 15.3131 38.7915 15.1843 39.1231C14.9585 39.7041 14.9501 39.7917 14.9548 41.5152C14.9593 43.2089 14.9723 43.3424 15.1981 44.0199C16.008 46.4494 18.0148 47.9069 21.4704 48.5753C25.3479 49.3253 33.0064 49.3026 36.7748 48.5301C40.1137 47.8456 42.0407 46.4123 42.8381 44.0199C43.0643 43.3415 43.0768 43.2114 43.0798 41.5152C43.0827 39.8708 43.0666 39.6829 42.8811 39.1904C41.8364 36.4175 38.7191 34.2809 34.2881 33.3005C32.2496 32.8494 29.4497 32.6448 27.321 32.7912ZM1.79003 35.9784C1.32181 36.2121 1.03312 36.5165 0.75167 37.0736C0.524882 37.5224 0.564988 38.3189 0.878507 39.592C1.93733 43.8919 3.83112 47.7189 6.65511 51.2656C7.61791 52.4747 10.1478 55.0267 11.4503 56.1027C14.4583 58.5875 18.4253 60.9795 22.201 62.5851C24.8892 63.7282 25.7318 63.9187 28.3989 63.9864C31.3603 64.0615 32.7272 63.8424 35.0208 62.9251C36.4854 62.3394 39.7083 60.7535 41.0765 59.9452C42.7085 58.9812 43.1251 58.4762 43.129 57.4573C43.1337 56.1987 42.2205 55.246 40.9924 55.2286C40.347 55.2194 40.1559 55.2947 38.8435 56.075C37.5357 56.8525 36.1074 57.5817 34.4442 58.321C31.9722 59.4198 31.1643 59.5826 28.5036 59.5179C26.5084 59.4695 26.0626 59.3738 24.2324 58.601C17.4259 55.7269 12.0795 51.5561 8.69495 46.4799C7.03598 43.9917 5.93483 41.4576 5.19658 38.4291C4.83563 36.9483 4.77543 36.808 4.30569 36.3537C3.62256 35.693 2.65217 35.5482 1.79003 35.9784ZM31.8645 37.403C34.5383 37.7789 36.7896 38.6477 37.9803 39.763C38.218 39.9856 38.4692 40.2778 38.5386 40.4122C38.697 40.7188 38.7094 42.2402 38.5577 42.7472C38.3762 43.354 37.6632 43.7397 36.0299 44.1146C34.0846 44.561 30.1469 44.7738 26.7628 44.6154C23.3968 44.4578 21.5555 44.1592 20.3091 43.5687C19.5465 43.2074 19.4225 42.9647 19.3841 41.7586C19.3629 41.0925 19.3893 40.659 19.4621 40.4831C19.6016 40.146 20.4449 39.3677 21.0836 38.9867C22.5507 38.1115 25.1475 37.4212 27.6783 37.2334C28.5369 37.1697 30.8807 37.2647 31.8645 37.403Z" fill="#F291A3" fill-opacity="0.84"/>
</svg>
